<?xml version="1.0" encoding="UTF-8"?>
<!-- Generator: visioncortex VTracer 0.6.3 -->
<svg version="1.1" xmlns="http://www.w3.org/2000/svg" width="1280" height="1280">
<path d="M0 0 C2.7 1.01 3.8 1.63 5.2 4.21 C5.5 5.07 5.81 5.93 6.12 6.81 C6.44 7.66 6.75 8.52 7.07 9.39 C7.38 10.25 7.68 11.11 8 12 C8.37 12.85 8.74 13.7 9.12 14.57 C10 17 10 17 10 21 C10.66 21 11.32 21 12 21 C14.31 25.37 16.27 29.63 17.88 34.31 C19.96 40.25 22.9 45.54 26 51 C27.86 54.57 29.54 58.2 31.19 61.88 C33.41 66.78 35.74 71.62 38.12 76.44 C38.46 77.12 38.8 77.81 39.15 78.52 C40.85 81.94 42.68 84.97 45 88 C46.17 90.11 47.32 92.24 48.44 94.38 C50.22 97.78 52.02 101.03 54.16 104.23 C56 107 56 107 57 110 C57.66 110 58.32 110 59 110 C59.18 110.59 59.36 111.18 59.55 111.79 C59.8 112.58 60.05 113.37 60.31 114.19 C60.56 114.96 60.8 115.74 61.05 116.54 C62.1 119.26 63.45 121.53 65 124 C65.51 124.88 66.01 125.77 66.54 126.68 C67.29 127.98 67.29 127.98 68.06 129.31 C68.82 130.64 68.82 130.64 69.6 131.99 C70.06 132.65 70.52 133.32 71 134 C71.66 134 72.32 134 73 134 C73.16 134.84 73.16 134.84 73.32 135.69 C74.13 138.44 75.38 140.55 76.88 143 C77.39 143.85 77.9 144.69 78.43 145.56 C79.96 147.99 79.96 147.99 81.63 150.18 C83 152 83 152 84 154.19 C84.93 156.35 84.93 156.35 88 157 C89 160 89 160 89 162 C89.64 162.43 90.28 162.87 90.94 163.31 C93 165 93 165 93.44 167.38 C94.22 171.04 96.32 172.45 99 175 C100.01 176.66 101.01 178.33 102 180 C102.72 180.68 103.44 181.36 104.19 182.06 C106 184 106 184 106 188 C107.65 188.66 109.3 189.32 111 190 C111.33 144.13 111.66 98.26 112 51 C134.8 50.97 134.8 50.97 158.06 50.94 C162.85 50.93 167.65 50.92 172.58 50.91 C178.45 50.91 178.45 50.91 181.21 50.9 C183.12 50.9 185.03 50.9 186.95 50.89 C189.85 50.89 192.76 50.89 195.67 50.89 C196.51 50.88 197.36 50.88 198.23 50.88 C205.16 50.89 211.44 51.6 218 54 C218 54.66 218 55.32 218 56 C218.6 56.1 219.21 56.2 219.83 56.3 C224.86 57.24 227.55 58.03 231 62 C231.63 62.13 232.27 62.26 232.92 62.39 C235.67 63.2 236.34 64.4 237.94 66.75 C239.74 69.31 241.37 71.36 243.62 73.56 C246.49 76.51 248.06 79.38 250 83 C250.66 83.99 251.32 84.98 252 86 C254.41 92.18 255.4 98.25 255.79 104.85 C255.77 106.98 255.77 106.98 257 108 C257.47 115.22 256.16 121.14 254 128 C253.65 129.15 253.3 130.31 252.94 131.5 C252 134 252 134 250 137 C249.85 137.64 249.7 138.28 249.55 138.94 C248.03 144.65 242.36 150.29 238 154 C236.01 154.7 234.01 155.37 232 156 C231.34 156.99 230.68 157.98 230 159 C227.62 159.95 227.62 159.95 224.88 160.69 C223.96 160.94 223.05 161.19 222.12 161.45 C221.42 161.63 220.72 161.81 220 162 C220.6 162.23 221.19 162.45 221.81 162.68 C224.63 164.38 225.51 166.18 227.06 169.06 C229.06 173.12 229.06 173.12 233 175 C233.69 176.99 234.36 178.99 235 181 C236.46 182.63 236.46 182.63 238 184 C239.19 186.19 239.19 186.19 240 188 C240.66 187.67 241.32 187.34 242 187 C242.12 187.57 242.24 188.13 242.37 188.71 C242.62 189.82 242.62 189.82 242.88 190.94 C243.04 191.67 243.2 192.4 243.37 193.15 C243.83 195.21 243.83 195.21 246 196 C246.45 196.93 246.91 197.86 247.38 198.81 C248.97 201.94 250.52 203.59 253 206 C255.41 209.52 256.7 212.96 258 217 C252.23 217.12 246.47 217.21 240.7 217.27 C238.74 217.3 236.78 217.33 234.82 217.38 C232 217.44 229.18 217.47 226.36 217.49 C225.48 217.51 224.61 217.54 223.7 217.57 C217.61 217.57 217.61 217.57 214.42 214.59 C213 212 213 212 213 210 C212.34 210 211.68 210 211 210 C208 205.62 208 205.62 208 203 C207.34 203 206.68 203 206 203 C204.94 201.37 203.96 199.69 203 198 C200.63 194.18 198.64 191.6 195 189 C195 188.34 195 187.68 195 187 C194.28 186.75 193.56 186.5 192.81 186.25 C189.74 184.88 187.57 183.16 185 181 C184.01 180.34 183.02 179.68 182 179 C182 178.34 182 177.68 182 177 C181.28 176.88 180.56 176.75 179.81 176.62 C177.04 176.01 174.64 175.05 172 174 C167.1 172.74 162.02 172.46 157 172 C157 171.34 157 170.68 157 170 C155.68 170 154.36 170 153 170 C152.67 185.51 152.34 201.02 152 217 C132.98 217.2 132.98 217.2 124.87 217.24 C119.34 217.27 113.81 217.31 108.28 217.38 C103.81 217.43 99.35 217.46 94.89 217.47 C93.19 217.48 91.49 217.5 89.79 217.53 C87.4 217.56 85.02 217.57 82.64 217.57 C81.58 217.59 81.58 217.59 80.51 217.62 C76.66 217.58 75.16 217.14 72.21 214.59 C71.48 213.73 70.75 212.88 70 212 C69.01 211.34 68.02 210.68 67 210 C65.65 207.98 64.48 205.89 63.28 203.78 C62.04 201.69 62.04 201.69 59 201 C57.95 198.69 56.95 196.35 56 194 C55.34 193.34 54.68 192.68 54 192 C53.57 191.34 53.13 190.68 52.69 190 C50.55 187.46 49.19 186.96 46 186 C43.07 185.83 40.24 185.77 37.31 185.8 C36.45 185.81 35.58 185.81 34.69 185.81 C32.82 185.82 30.95 185.83 29.08 185.85 C26.12 185.88 23.16 185.89 20.21 185.9 C13.93 185.92 7.65 185.96 1.38 186 C-5.91 186.05 -13.19 186.09 -20.47 186.11 C-23.38 186.12 -26.3 186.15 -29.22 186.18 C-31 186.18 -32.79 186.19 -34.57 186.2 C-35.38 186.21 -36.2 186.22 -37.03 186.23 C-40.89 186.23 -42.71 186.19 -46 184 C-50.04 188.46 -50.04 188.46 -52 194 C-53.44 195.75 -53.44 195.75 -55 197 C-55.66 197 -56.32 197 -57 197 C-57.08 197.72 -57.16 198.44 -57.25 199.19 C-58.18 202.69 -59.6 204.28 -62 207 C-62.58 207.69 -63.15 208.38 -63.75 209.09 C-67.39 213.41 -67.39 213.41 -69 215 C-69.66 215 -70.32 215 -71 215 C-71.33 215.66 -71.66 216.32 -72 217 C-80.8 217.07 -89.59 217.12 -98.39 217.16 C-102.48 217.17 -106.56 217.19 -110.65 217.23 C-114.59 217.26 -118.53 217.28 -122.47 217.28 C-123.98 217.29 -125.48 217.3 -126.98 217.32 C-129.09 217.34 -131.2 217.34 -133.3 217.34 C-134.5 217.35 -135.7 217.35 -136.94 217.36 C-140.4 216.95 -141.78 216.71 -144 214 C-144.41 211.22 -144.56 208.82 -144.55 206.04 C-144.56 205.23 -144.57 204.42 -144.58 203.59 C-144.61 200.91 -144.61 198.23 -144.61 195.55 C-144.62 193.69 -144.64 191.84 -144.66 189.98 C-144.7 185.09 -144.72 180.21 -144.74 175.32 C-144.76 170.33 -144.8 165.34 -144.84 160.36 C-144.92 150.57 -144.97 140.79 -145 131 C-150.8 138.17 -155.49 145.98 -160 154 C-160.66 154.99 -161.32 155.98 -162 157 C-162.66 157 -163.32 157 -164 157 C-164.06 158.03 -164.12 159.06 -164.19 160.12 C-165.15 164.72 -166.87 166.57 -170 170 C-171.67 172.57 -173.05 175.11 -174.38 177.88 C-175.63 180.29 -176.83 182.22 -178.44 184.38 C-180.62 187.35 -182.32 190.38 -183.91 193.71 C-185.56 197.17 -187.28 200.58 -189 204 C-192.25 204.26 -195.5 204.47 -198.75 204.69 C-199.67 204.76 -200.59 204.83 -201.54 204.91 C-202.43 204.96 -203.32 205.02 -204.23 205.07 C-205.05 205.13 -205.87 205.19 -206.71 205.25 C-209.61 204.93 -210.88 203.97 -213 202 C-214.06 199.62 -214.06 199.62 -215 197 C-216.84 193.34 -216.84 193.34 -220 191 C-220.85 188.93 -220.85 188.93 -221.62 186.44 C-221.89 185.61 -222.15 184.78 -222.41 183.93 C-222.61 183.3 -222.8 182.66 -223 182 C-223.66 182 -224.32 182 -225 182 C-225 181.34 -225 180.68 -225 180 C-225.66 180 -226.32 180 -227 180 C-227.37 178.7 -227.37 178.7 -227.75 177.38 C-229.07 173.81 -230.88 171.14 -233 168 C-233.75 165.62 -233.75 165.62 -234 164 C-234.66 164 -235.32 164 -236 164 C-236 163.34 -236 162.68 -236 162 C-236.66 162 -237.32 162 -238 162 C-239.76 158.91 -240 157.77 -240 154 C-240.66 153.67 -241.32 153.34 -242 153 C-242.45 152.07 -242.91 151.14 -243.38 150.19 C-244.79 147 -244.79 147 -247 145 C-249.43 142.57 -250.64 140.13 -252 137 C-252 136.34 -252 135.68 -252 135 C-252.66 135 -253.32 135 -254 135 C-254.33 134.01 -254.66 133.02 -255 132 C-255.33 160.05 -255.66 188.1 -256 217 C-269.53 217 -283.06 217 -297 217 C-298.86 215.14 -298.13 212.06 -298.13 209.58 C-298.13 208.91 -298.13 208.23 -298.13 207.53 C-298.14 205.24 -298.13 202.95 -298.13 200.66 C-298.13 199.03 -298.13 197.4 -298.13 195.76 C-298.14 191.31 -298.14 186.86 -298.13 182.41 C-298.13 177.76 -298.13 173.12 -298.14 168.47 C-298.14 160.67 -298.14 152.86 -298.13 145.06 C-298.12 136.02 -298.13 126.98 -298.13 117.95 C-298.14 110.2 -298.14 102.46 -298.13 94.71 C-298.13 90.08 -298.13 85.45 -298.14 80.82 C-298.14 76.46 -298.14 72.11 -298.13 67.76 C-298.13 66.15 -298.13 64.55 -298.13 62.95 C-298.14 60.77 -298.13 58.59 -298.13 56.42 C-298.13 55.19 -298.13 53.97 -298.13 52.71 C-298 50 -298 50 -297 49 C-294.44 48.87 -291.91 48.81 -289.35 48.8 C-288.58 48.79 -287.81 48.79 -287.02 48.78 C-285.39 48.77 -283.76 48.76 -282.14 48.76 C-279.64 48.75 -277.15 48.72 -274.66 48.69 C-273.08 48.68 -271.49 48.68 -269.91 48.67 C-269.17 48.66 -268.42 48.65 -267.65 48.63 C-262.49 48.66 -262.49 48.66 -260.1 50.34 C-258.48 52.78 -257.26 55.37 -256 58 C-255.02 59.68 -254.02 61.35 -253 63 C-252.34 62.67 -251.68 62.34 -251 62 C-250.57 63.67 -250.57 63.67 -250.12 65.38 C-249.31 69 -249.31 69 -247 71 C-246.32 72.66 -245.65 74.33 -245 76 C-244.12 77.6 -243.2 79.19 -242.25 80.75 C-241.73 81.61 -241.2 82.48 -240.66 83.37 C-238.59 86.65 -236.37 89.84 -234.1 92.99 C-233 95 -233 95 -233 99 C-232.34 99 -231.68 99 -231 99 C-229.47 101.26 -228.2 103.62 -226.91 106.02 C-224.31 110.77 -221.52 115.27 -218.47 119.75 C-216.57 122.66 -214.94 125.68 -213.29 128.74 C-211.92 131.14 -210.43 133.4 -208.88 135.69 C-203 144.35 -203 144.35 -203 148 C-201.35 148.33 -199.7 148.66 -198 149 C-198 148.34 -198 147.68 -198 147 C-197.34 147 -196.68 147 -196 147 C-196 145.68 -196 144.36 -196 143 C-195.34 143 -194.68 143 -194 143 C-193.88 142.43 -193.77 141.86 -193.64 141.27 C-191.86 134.99 -187.61 129.35 -184 124 C-183.31 122.68 -182.62 121.35 -182 120 C-181.34 120 -180.68 120 -180 120 C-180 118.68 -180 117.36 -180 116 C-179.34 116 -178.68 116 -178 116 C-177.9 115.44 -177.79 114.89 -177.69 114.31 C-176.86 111.54 -175.49 109.47 -174 107 C-172.94 104.69 -171.97 102.35 -171 100 C-170.34 100 -169.68 100 -169 100 C-169 99.34 -169 98.68 -169 98 C-168.34 98 -167.68 98 -167 98 C-167 96.68 -167 95.36 -167 94 C-166.34 94 -165.68 94 -165 94 C-164.82 93.14 -164.82 93.14 -164.64 92.27 C-162.85 85.93 -158.53 80.14 -155.02 74.63 C-153.95 72.97 -153.95 72.97 -153 71 C-152.34 71 -151.68 71 -151 71 C-151 69.68 -151 68.36 -151 67 C-150.34 67 -149.68 67 -149 67 C-148.85 66.16 -148.85 66.16 -148.69 65.31 C-147.86 62.53 -146.55 60.45 -145 58 C-143.19 55.03 -141.56 52.12 -140 49 C-127.79 49 -115.58 49 -103 49 C-103 49.66 -103 50.32 -103 51 C-103.66 51 -104.32 51 -105 51 C-104.67 51.66 -104.34 52.32 -104 53 C-103.93 55.02 -103.92 57.05 -103.94 59.07 C-103.95 60.3 -103.95 61.52 -103.96 62.79 C-103.99 65.37 -104.01 67.95 -104.04 70.53 C-104.05 71.76 -104.05 72.99 -104.06 74.26 C-104.08 75.95 -104.08 75.95 -104.1 77.67 C-104.07 80.98 -104.07 80.98 -103.51 84.11 C-102.92 88.61 -102.82 92.99 -102.79 97.52 C-102.78 98.44 -102.77 99.37 -102.76 100.33 C-102.73 103.37 -102.71 106.42 -102.68 109.46 C-102.66 111.58 -102.64 113.7 -102.62 115.82 C-102.57 121.39 -102.52 126.95 -102.47 132.52 C-102.42 138.2 -102.36 143.89 -102.31 149.57 C-102.2 160.71 -102.1 171.86 -102 183 C-101.34 183 -100.68 183 -100 183 C-100 182.34 -100 181.68 -100 181 C-99.34 181 -98.68 181 -98 181 C-97.92 180.46 -97.84 179.93 -97.75 179.38 C-96.74 176.16 -94.9 173.77 -93 171 C-92.31 169.68 -91.62 168.35 -91 167 C-90.34 167 -89.68 167 -89 167 C-88.66 165.73 -88.66 165.73 -88.31 164.44 C-86.81 160.5 -84.87 157.11 -82 154 C-81.34 154 -80.68 154 -80 154 C-79.92 153.46 -79.84 152.93 -79.75 152.38 C-78.74 149.16 -76.88 146.79 -75 144 C-73.6 141.37 -72.29 138.69 -71 136 C-70.34 136 -69.68 136 -69 136 C-68.73 135.3 -68.46 134.6 -68.19 133.88 C-66.93 130.84 -65.5 127.93 -64 125 C-63.34 125 -62.68 125 -62 125 C-61.9 124.47 -61.8 123.94 -61.69 123.39 C-60.8 120.3 -59.4 117.62 -57.94 114.75 C-57.39 113.67 -56.84 112.59 -56.28 111.48 C-55.86 110.66 -55.43 109.84 -55 109 C-54.34 109 -53.68 109 -53 109 C-53 108.34 -53 107.68 -53 107 C-52.34 107 -51.68 107 -51 107 C-51 105.68 -51 104.36 -51 103 C-50.34 103 -49.68 103 -49 103 C-48.85 101.95 -48.85 101.95 -48.69 100.88 C-47.49 95.85 -44.89 91.27 -42 87 C-41.34 87 -40.68 87 -40 87 C-40 85.68 -40 84.36 -40 83 C-39.34 83 -38.68 83 -38 83 C-37.92 82.17 -37.84 81.35 -37.75 80.5 C-36.84 76.23 -35.08 72.81 -33 69 C-32.34 69 -31.68 69 -31 69 C-31 67.68 -31 66.36 -31 65 C-30.34 65 -29.68 65 -29 65 C-28.92 64.17 -28.84 63.35 -28.75 62.5 C-27.84 58.23 -26.08 54.81 -24 51 C-23.34 51 -22.68 51 -22 51 C-22 49.68 -22 48.36 -22 47 C-21.34 47 -20.68 47 -20 47 C-19.9 46.32 -19.8 45.63 -19.69 44.93 C-18.86 41.42 -17.48 38.44 -15.94 35.19 C-15.39 34.03 -14.84 32.86 -14.28 31.67 C-13.65 30.35 -13.65 30.35 -13 29 C-12.34 29 -11.68 29 -11 29 C-10.92 28.22 -10.84 27.43 -10.75 26.62 C-9.76 21.82 -7.91 17.5 -6 13 C-5.34 13 -4.68 13 -4 13 C-4.08 12.34 -4.16 11.68 -4.25 11 C-3.9 6.79 -2.03 3.65 0 0 Z M181.3 82.12 C180.46 82.14 179.62 82.17 178.76 82.19 C176.09 82.27 173.42 82.35 170.75 82.44 C168.94 82.49 167.13 82.54 165.31 82.6 C160.87 82.72 156.44 82.86 152 83 C151.97 90.81 151.96 98.63 151.95 106.44 C151.94 109.1 151.93 111.77 151.92 114.43 C151.91 118.24 151.91 122.06 151.9 125.87 C151.9 127.07 151.89 128.27 151.89 129.5 C151.89 130.6 151.89 131.7 151.89 132.84 C151.88 133.81 151.88 134.79 151.88 135.79 C151.75 137.97 151.75 137.97 153 139 C155.25 139.1 157.5 139.13 159.75 139.13 C160.77 139.13 160.77 139.13 161.82 139.14 C163.28 139.14 164.74 139.13 166.2 139.13 C168.4 139.13 170.6 139.13 172.79 139.14 C187.16 139.35 187.16 139.35 201 136 C201 135.34 201 134.68 201 134 C201.58 133.89 202.17 133.79 202.77 133.68 C205.3 132.91 206.73 131.89 208.75 130.19 C209.36 129.69 209.98 129.18 210.61 128.67 C212.43 126.85 212.43 126.85 212 123 C212.66 123 213.32 123 214 123 C215.31 119.08 215.22 115.33 215.25 111.25 C215.27 110.46 215.29 109.68 215.31 108.87 C215.35 103.48 214.44 99.81 212 95 C211.34 95 210.68 95 210 95 C209.94 94.42 209.88 93.85 209.81 93.25 C208.61 89.91 206.98 88.94 204 87 C196.16 83.41 189.93 81.83 181.3 82.12 Z M-105 88 C-105 119.68 -105 151.36 -105 184 C-104.67 184 -104.34 184 -104 184 C-104 152.32 -104 120.64 -104 88 C-104.33 88 -104.66 88 -105 88 Z M0 103 C-2.28 105.28 -2.85 107.01 -4 110 C-4.52 110.99 -5.03 111.98 -5.56 113 C-6.88 115.74 -7.56 118.01 -8 121 C-8.66 121 -9.32 121 -10 121 C-10.25 121.66 -10.51 122.33 -10.77 123.01 C-15.55 135.27 -15.55 135.27 -19 137 C-20.15 140.45 -21 143.35 -21 147 C-5.82 147 9.36 147 25 147 C24.34 145.02 23.68 143.04 23 141 C22.34 141 21.68 141 21 141 C20.5 138.03 20.5 138.03 20 135 C19.34 135 18.68 135 18 135 C17.92 134.3 17.84 133.6 17.75 132.88 C16.83 129.35 15.04 127 13 124 C12.25 121.62 12.25 121.62 12 120 C11.34 120 10.68 120 10 120 C9.67 118.35 9.34 116.7 9 115 C8.34 115 7.68 115 7 115 C7 113.68 7 112.36 7 111 C6.34 111 5.68 111 5 111 C4.88 110.24 4.75 109.47 4.62 108.69 C4.12 105.8 4.12 105.8 2 103 C1.34 103 0.68 103 0 103 Z M254 113 C254 115.64 254 118.28 254 121 C254.33 121 254.66 121 255 121 C255 118.36 255 115.72 255 113 C254.67 113 254.34 113 254 113 Z M-159 146 C-158 148 -158 148 -158 148 Z M-188 195 C-187 197 -187 197 -187 197 Z M-68 209 C-68.66 210.32 -69.32 211.64 -70 213 C-68.68 211.68 -67.36 210.36 -66 209 C-66.66 209 -67.32 209 -68 209 Z " fill="#535545" transform="translate(658,714)"/>
<path d="M0 0 C7.92 0 15.84 0 24 0 C24 27.72 24 55.44 24 84 C15.42 84 6.84 84 -2 84 C-2.33 84.33 -2.66 84.66 -3 85 C-8.65 86.08 -14.14 86.09 -19.88 86 C-21.58 85.97 -23.29 85.95 -24.99 85.94 C-25.74 85.93 -26.48 85.91 -27.25 85.9 C-29.03 85.81 -29.03 85.81 -30 87 C-32.37 87.21 -34.75 87.37 -37.12 87.5 C-42.14 87.78 -47.03 88.28 -52 89 C-53.09 88.98 -54.19 88.96 -55.31 88.94 C-58.15 88.69 -58.15 88.69 -60 91 C-62.35 91.38 -62.35 91.38 -65.06 91.56 C-68.34 91.54 -68.34 91.54 -71 93 C-72.4 93.02 -73.79 92.99 -75.19 92.94 C-79.24 92.89 -82.17 93.59 -86 95 C-88.57 95.56 -91.15 96.05 -93.73 96.54 C-96.15 96.98 -96.15 96.98 -99 98 C-100.08 98.19 -100.08 98.19 -101.19 98.38 C-103.63 98.92 -105.64 99.63 -107.94 100.56 C-111.43 101.94 -114.23 102.09 -118 102 C-118.66 102.66 -119.32 103.32 -120 104 C-122.56 104.72 -125.09 105.36 -127.69 105.94 C-133.11 107.16 -137.92 108.74 -143 111 C-144.68 111.55 -146.36 112.08 -148.06 112.56 C-150.73 113.34 -153.37 114.12 -156 115 C-158.63 115.88 -161.27 116.66 -163.94 117.44 C-168.13 118.68 -172 120.23 -176 122 C-178.55 122.9 -181.06 123.77 -183.68 124.4 C-187.12 125.29 -190.49 126.37 -193.88 127.44 C-194.57 127.65 -195.26 127.87 -195.98 128.1 C-201.4 129.8 -206.79 131.55 -212.13 133.51 C-212.85 133.77 -213.58 134.04 -214.33 134.31 C-215.82 134.86 -217.32 135.41 -218.81 135.96 C-222.75 137.39 -225.77 138.11 -230 138 C-230.66 138.66 -231.32 139.32 -232 140 C-238.87 142.03 -238.87 142.03 -242.5 141.94 C-245.56 142.01 -247.95 143.08 -250.77 144.2 C-257.71 146.69 -264.43 147.21 -271.75 146.88 C-274.21 146.76 -274.21 146.76 -276 149 C-279.43 149.12 -282.8 149.04 -286.23 148.92 C-288.16 148.88 -290.08 148.93 -292 149 C-292.66 149.66 -293.32 150.32 -294 151 C-297.06 151.24 -297.06 151.24 -300.94 151.23 C-301.62 151.23 -302.31 151.23 -303.01 151.23 C-304.45 151.23 -305.9 151.22 -307.34 151.21 C-309.56 151.19 -311.77 151.19 -313.99 151.19 C-324.85 151.15 -324.85 151.15 -326 150 C-327.34 149.84 -328.69 149.75 -330.04 149.68 C-330.84 149.64 -331.65 149.6 -332.49 149.56 C-333.34 149.52 -334.19 149.48 -335.06 149.44 C-336.34 149.37 -336.34 149.37 -337.65 149.31 C-339.77 149.2 -341.88 149.1 -344 149 C-344 148.34 -344 147.68 -344 147 C-344.75 147.02 -345.5 147.05 -346.27 147.07 C-353.06 147.19 -359.44 146.88 -366 145 C-366.33 144.67 -366.66 144.34 -367 144 C-368.45 144.03 -368.45 144.03 -369.94 144.06 C-373 144 -373 144 -375 142 C-375.72 142 -376.44 142 -377.19 142 C-380.75 142 -383.64 141.14 -387 140 C-387.99 139.01 -387.99 139.01 -389 138 C-390.62 137.76 -392.24 137.53 -393.87 137.34 C-400.06 136.34 -406.07 133.98 -412 132 C-413.24 131.65 -414.48 131.3 -415.75 130.94 C-419 130 -419 130 -421 129 C-420.49 124.03 -419.77 119.71 -418 115 C-417.34 115 -416.68 115 -416 115 C-416 113.68 -416 112.36 -416 111 C-415.34 111 -414.68 111 -414 111 C-413.95 110.41 -413.9 109.82 -413.85 109.21 C-413.44 104.81 -412.95 101.03 -411 97 C-410.34 97 -409.68 97 -409 97 C-409.04 96.3 -409.08 95.6 -409.12 94.88 C-408.98 91.62 -408.13 89.04 -407 86 C-406.34 86 -405.68 86 -405 86 C-405.04 85.28 -405.08 84.56 -405.12 83.81 C-404.99 80.75 -404.29 78.79 -403.06 76 C-401.61 72.66 -400.61 69.59 -400 66 C-399.34 66 -398.68 66 -398 66 C-398 64.68 -398 63.36 -398 62 C-397.34 62 -396.68 62 -396 62 C-396.04 61.3 -396.08 60.6 -396.12 59.88 C-395.98 56.62 -395.13 54.04 -394 51 C-389.18 50.76 -385.54 51.55 -381 53 C-381 53.66 -381 54.32 -381 55 C-380.3 54.96 -379.6 54.92 -378.88 54.88 C-375.59 55.02 -373.12 55.95 -370 57 C-367.9 57.5 -365.8 57.98 -363.69 58.44 C-359.78 59.31 -356.02 60.27 -352.25 61.62 C-347.85 63.18 -343.65 63.63 -339 64 C-339 64.66 -339 65.32 -339 66 C-319.53 66 -300.06 66 -280 66 C-280 65.34 -280 64.68 -280 64 C-277.03 64 -274.06 64 -271 64 C-271 63.34 -271 62.68 -271 62 C-269.87 61.86 -268.73 61.71 -267.56 61.56 C-264.19 61.39 -264.19 61.39 -263 60 C-261.97 59.86 -260.94 59.71 -259.88 59.56 C-256 59.09 -256 59.09 -252.38 57.94 C-249.36 57.1 -247.09 56.81 -244 57 C-244 56.34 -244 55.68 -244 55 C-242.02 55 -240.04 55 -238 55 C-238 54.34 -238 53.68 -238 53 C-237.31 52.82 -236.62 52.64 -235.91 52.45 C-231.3 51.22 -226.75 49.95 -222.25 48.38 C-218.49 47.08 -214.95 46.42 -211 46 C-211 45.34 -211 44.68 -211 44 C-210.29 43.82 -209.57 43.64 -208.84 43.45 C-204.52 42.32 -200.46 41.21 -196.38 39.38 C-192.25 37.69 -188.42 37.29 -184 37 C-184 36.34 -184 35.68 -184 35 C-183.28 34.82 -182.55 34.64 -181.8 34.45 C-175.7 32.88 -175.7 32.88 -169.94 30.38 C-165.74 28.41 -161.58 28.26 -157 28 C-157 27.34 -157 26.68 -157 26 C-155.99 25.9 -154.98 25.79 -153.94 25.69 C-150.05 25.17 -150.05 25.17 -146.91 23.62 C-142.26 21.57 -137.43 20.47 -132.5 19.31 C-131.59 19.09 -130.68 18.86 -129.74 18.63 C-124.69 17.43 -120.18 16.74 -115 17 C-115 16.34 -115 15.68 -115 15 C-113.87 14.86 -112.73 14.71 -111.56 14.56 C-108.19 14.39 -108.19 14.39 -107 13 C-104.94 12.68 -102.88 12.49 -100.81 12.28 C-98.98 12.18 -98.98 12.18 -98 11 C-96.36 10.79 -94.71 10.63 -93.06 10.5 C-89.39 10.25 -89.39 10.25 -86 9 C-79.3 8.04 -72.76 7.89 -66 8 C-66 7.34 -66 6.68 -66 6 C-65 5.94 -64 5.88 -62.97 5.82 C-61.68 5.73 -60.39 5.65 -59.06 5.56 C-57.77 5.48 -56.49 5.4 -55.16 5.32 C-52.14 5.35 -52.14 5.35 -51 4 C-49.6 3.86 -48.19 3.77 -46.78 3.72 C-45.93 3.68 -45.08 3.64 -44.21 3.61 C-41.5 3.5 -41.5 3.5 -38.79 3.39 C-37.94 3.36 -37.09 3.32 -36.22 3.28 C-35.04 3.24 -35.04 3.24 -33.84 3.19 C-31.98 3.19 -31.98 3.19 -31 2 C-28.79 1.85 -26.58 1.77 -24.38 1.72 C-23.38 1.69 -23.38 1.69 -22.37 1.66 C-19.53 1.58 -16.68 1.52 -13.84 1.45 C-11.77 1.4 -9.7 1.34 -7.62 1.28 C-6.38 1.25 -5.13 1.22 -3.85 1.19 C-1.1 1.32 -1.1 1.32 0 0 Z " fill="#545545" transform="translate(858,242)"/>
<path d="M0 0 C0 95.37 0 190.74 0 289 C-27.06 289 -54.12 289 -82 289 C-82.95 286.14 -83.13 284.36 -83.13 281.39 C-83.13 280.44 -83.14 279.48 -83.14 278.5 C-83.14 277.45 -83.14 276.41 -83.13 275.33 C-83.14 274.21 -83.14 273.1 -83.14 271.96 C-83.15 268.21 -83.15 264.47 -83.15 260.72 C-83.15 258.05 -83.15 255.37 -83.16 252.69 C-83.16 246.16 -83.17 239.64 -83.17 233.11 C-83.17 227.81 -83.17 222.5 -83.17 217.2 C-83.18 202.18 -83.19 187.15 -83.19 172.13 C-83.19 171.32 -83.19 170.51 -83.19 169.67 C-83.19 168.86 -83.19 168.05 -83.19 167.21 C-83.18 154.06 -83.19 140.9 -83.21 127.74 C-83.22 114.24 -83.23 100.74 -83.23 87.24 C-83.23 79.66 -83.23 72.08 -83.24 64.49 C-83.25 58.04 -83.25 51.58 -83.25 45.13 C-83.24 41.83 -83.24 38.54 -83.25 35.24 C-83.26 31.68 -83.25 28.11 -83.25 24.55 C-83.25 22.97 -83.25 22.97 -83.26 21.36 C-83.26 20.41 -83.25 19.46 -83.25 18.49 C-83.25 17.66 -83.25 16.84 -83.25 15.99 C-83 14 -83 14 -81 12 C-79 11.43 -76.97 10.94 -74.94 10.5 C-73.77 10.24 -72.59 9.99 -71.39 9.73 C-70.27 9.49 -69.15 9.25 -68 9 C-66.42 8.63 -64.83 8.25 -63.25 7.88 C-59.44 7.02 -55.64 6.58 -51.75 6.25 C-49.97 6.18 -49.97 6.18 -49 5 C-46.42 4.68 -43.84 4.49 -41.25 4.28 C-39.03 4.24 -39.03 4.24 -38 3 C-34.9 2.68 -31.8 2.49 -28.69 2.28 C-26.08 2.29 -26.08 2.29 -25 1 C-22.56 0.79 -20.13 0.62 -17.69 0.5 C-12.74 0.32 -12.74 0.32 -7.89 -0.59 C-6 -1 -6 -1 0 0 Z " fill="#18B3A2" transform="translate(838,359)"/>
<path d="M0 0 C0.33 0 0.66 0 1 0 C1 84.48 1 168.96 1 256 C-26.39 256 -53.78 256 -82 256 C-83.87 254.13 -83.13 251.43 -83.13 248.94 C-83.13 248.07 -83.13 247.19 -83.13 246.28 C-83.13 245.36 -83.13 244.43 -83.13 243.48 C-83.14 240.35 -83.13 237.22 -83.13 234.1 C-83.13 231.86 -83.13 229.63 -83.13 227.4 C-83.14 221.32 -83.14 215.24 -83.13 209.16 C-83.13 202.81 -83.13 196.46 -83.14 190.11 C-83.14 178.76 -83.13 167.4 -83.13 156.05 C-83.12 145.75 -83.13 135.45 -83.13 125.16 C-83.14 113.21 -83.14 101.26 -83.13 89.31 C-83.13 82.98 -83.13 76.65 -83.14 70.33 C-83.14 64.38 -83.14 58.42 -83.13 52.47 C-83.13 50.29 -83.13 48.1 -83.13 45.91 C-83.14 42.93 -83.13 39.95 -83.13 36.97 C-83.13 36.1 -83.13 35.22 -83.13 34.32 C-83.12 30.96 -83.07 28.21 -82 25 C-76.59 21.46 -70.32 20.74 -64 21 C-64 20.34 -64 19.68 -64 19 C-62.99 18.9 -61.98 18.79 -60.94 18.69 C-56.88 17.98 -53.77 16.63 -50 15 C-47.88 14.47 -45.76 14.04 -43.62 13.6 C-34.68 12.01 -34.68 12.01 -27 8 C-25.33 7.96 -23.67 7.96 -22 8 C-22 7.34 -22 6.68 -22 6 C-20.27 5.49 -18.54 4.99 -16.81 4.5 C-15.85 4.22 -14.89 3.94 -13.89 3.66 C-11.15 3.03 -8.8 2.88 -6 3 C-6 2.34 -6 1.68 -6 1 C-4.79 1.03 -4.79 1.03 -3.56 1.06 C-1.07 1.3 -1.07 1.3 0 0 Z " fill="#545646" transform="translate(693,392)"/>
<path d="M0 0 C3.17 0.14 5.74 0.66 8.78 1.52 C14.66 3.09 20.51 3.97 26.54 4.72 C29.28 5.15 29.28 5.15 30.28 6.15 C32.3 6.38 34.32 6.56 36.34 6.71 C38 6.84 38 6.84 39.69 6.96 C40.55 7.03 41.4 7.09 42.28 7.15 C42.28 7.81 42.28 8.47 42.28 9.15 C42.88 9.14 43.48 9.14 44.1 9.13 C46.81 9.11 49.51 9.1 52.22 9.09 C53.64 9.07 53.64 9.07 55.08 9.06 C56.43 9.06 56.43 9.06 57.81 9.05 C58.64 9.05 59.47 9.04 60.33 9.03 C62.28 9.15 62.28 9.15 63.28 10.15 C65.79 10.36 68.27 10.52 70.78 10.65 C78.15 11.01 78.15 11.01 79.28 12.15 C79.38 15.02 79.41 17.86 79.4 20.73 C79.4 21.65 79.4 22.56 79.4 23.5 C79.41 26.58 79.4 29.65 79.39 32.73 C79.39 34.93 79.39 37.13 79.4 39.32 C79.4 45.31 79.39 51.29 79.38 57.28 C79.38 63.53 79.38 69.77 79.37 76.02 C79.37 86.51 79.37 97.01 79.36 107.5 C79.35 118.31 79.34 129.12 79.34 139.93 C79.34 140.59 79.34 141.26 79.34 141.95 C79.33 145.29 79.33 148.63 79.33 151.97 C79.32 179.69 79.3 207.42 79.28 235.15 C68.61 235.17 57.93 235.19 47.26 235.2 C42.3 235.21 37.35 235.21 32.39 235.22 C27.61 235.23 22.83 235.24 18.06 235.24 C16.23 235.25 14.4 235.25 12.57 235.25 C10.02 235.26 7.47 235.26 4.92 235.26 C4.16 235.27 3.4 235.27 2.61 235.27 C-2.6 235.26 -2.6 235.26 -3.72 234.15 C-3.82 231.15 -3.85 228.18 -3.85 225.19 C-3.85 224.24 -3.85 223.29 -3.85 222.31 C-3.85 219.09 -3.85 215.88 -3.85 212.66 C-3.85 210.37 -3.85 208.07 -3.85 205.78 C-3.86 199.53 -3.86 193.28 -3.85 187.03 C-3.85 180.51 -3.85 173.98 -3.85 167.46 C-3.86 155.79 -3.85 144.13 -3.85 132.47 C-3.84 121.89 -3.84 111.3 -3.85 100.72 C-3.85 88.44 -3.86 76.16 -3.85 63.89 C-3.85 57.38 -3.85 50.88 -3.86 44.37 C-3.86 38.26 -3.86 32.15 -3.85 26.03 C-3.85 23.78 -3.85 21.53 -3.85 19.28 C-3.85 16.22 -3.85 13.17 -3.85 10.11 C-3.85 9.2 -3.85 8.3 -3.85 7.37 C-3.83 0.21 -3.83 0.21 0 0 Z " fill="#18B3A2" transform="translate(470.71875,412.8515625)"/>
<path d="M0 0 C1.27 -0 1.27 -0 2.57 -0 C3.47 -0 4.36 0 5.28 0.01 C6.17 0 7.07 0 7.99 -0 C8.84 -0 9.69 -0 10.56 0 C11.35 0 12.13 0 12.94 0 C14.78 0.13 14.78 0.13 15.78 1.13 C17.99 1.32 20.2 1.46 22.41 1.57 C27.51 1.9 31.91 2.51 36.78 4.13 C38.92 4.69 41.07 5.23 43.22 5.76 C44.79 6.15 44.79 6.15 46.4 6.55 C47.19 6.74 47.97 6.93 48.78 7.13 C48.78 7.79 48.78 8.45 48.78 9.13 C49.46 9.24 50.14 9.34 50.84 9.45 C54.45 10.29 57.44 11.53 60.78 13.13 C61.11 13.79 61.44 14.45 61.78 15.13 C62.77 15.13 63.76 15.13 64.78 15.13 C64.78 16.45 64.78 17.77 64.78 19.13 C64.12 19.13 63.46 19.13 62.78 19.13 C61.14 22.87 59.6 26.6 58.22 30.45 C56.78 34.13 56.78 34.13 54.78 36.13 C54.82 36.88 54.86 37.62 54.91 38.38 C54.73 42.16 53 44.15 50.78 47.13 C44.78 44.13 44.78 44.13 42.67 43.01 C41.97 42.64 41.26 42.27 40.53 41.88 C39.87 41.53 39.2 41.17 38.52 40.8 C37.66 40.47 37.66 40.47 36.78 40.13 C35.79 40.63 35.79 40.63 34.78 41.13 C34.78 40.47 34.78 39.81 34.78 39.13 C34.21 39 33.63 38.87 33.04 38.73 C30.85 38.15 28.83 37.39 26.72 36.57 C22.13 34.99 18.07 34.95 13.26 35.22 C10.54 35.12 9.15 34.41 6.78 33.13 C3.66 32.88 3.66 32.88 0.78 33.13 C0.45 33.46 0.12 33.79 -0.22 34.13 C-2.17 34.29 -2.17 34.29 -4.16 34.45 C-10.74 35.14 -17.62 36.89 -22.22 41.95 C-24.76 46 -26.62 49.35 -25.91 54.25 C-24.68 58.41 -23.81 59.81 -19.91 61.95 C-18.69 62.34 -17.47 62.73 -16.22 63.13 C-15.35 63.63 -14.49 64.12 -13.59 64.63 C-8.36 66.96 -2.81 67.96 2.78 69.13 C2.78 69.79 2.78 70.45 2.78 71.13 C5.75 71.13 8.72 71.13 11.78 71.13 C11.78 71.79 11.78 72.45 11.78 73.13 C12.69 73.07 13.6 73.01 14.53 72.95 C22.66 72.95 30.46 75.85 37.78 79.13 C40.56 79.82 40.56 79.82 42.78 80.13 C42.78 80.79 42.78 81.45 42.78 82.13 C44.1 82.13 45.42 82.13 46.78 82.13 C47.11 82.79 47.44 83.45 47.78 84.13 C49.43 85.25 49.43 85.25 51.34 86.26 C52.48 86.88 53.61 87.5 54.78 88.13 C54.78 88.79 54.78 89.45 54.78 90.13 C55.38 90.4 55.98 90.66 56.59 90.94 C62.53 94.18 66.52 100.92 68.78 107.13 C69.03 110.13 69.03 110.13 68.78 112.13 C69.44 112.46 70.1 112.79 70.78 113.13 C70.84 115.92 70.87 118.72 70.91 121.51 C70.92 122.3 70.94 123.1 70.96 123.91 C70.97 125.99 70.88 128.06 70.78 130.13 C70.12 130.79 69.46 131.45 68.78 132.13 C68.43 134.46 68.1 136.8 67.78 139.13 C66.84 142.01 66.84 142.01 65.78 144.13 C65.12 144.46 64.46 144.79 63.78 145.13 C63.64 145.72 63.5 146.31 63.35 146.92 C61.73 153.21 55.84 158.68 50.53 162.15 C47.72 163.73 44.76 164.91 41.78 166.13 C40.23 167.12 40.23 167.12 38.66 168.13 C34.31 170.73 29.49 171.51 24.57 172.52 C21.84 173 21.84 173 19.78 174.13 C16.81 174.23 13.87 174.27 10.91 174.27 C9.59 174.27 9.59 174.27 8.24 174.27 C6.38 174.27 4.51 174.27 2.65 174.26 C-0.21 174.26 -3.06 174.26 -5.92 174.27 C-7.73 174.27 -9.54 174.27 -11.34 174.27 C-12.2 174.27 -13.06 174.27 -13.94 174.27 C-19.99 174.25 -19.99 174.25 -22.22 173.13 C-24.55 172.82 -26.88 172.62 -29.22 172.41 C-31.22 172.13 -31.22 172.13 -32.22 171.13 C-33.83 170.92 -33.83 170.92 -35.47 170.7 C-38.84 170.19 -41.12 169.44 -44.22 168.13 C-45.18 167.74 -46.13 167.35 -47.12 166.95 C-55.13 163.64 -62.25 160.29 -69.22 155.13 C-68.63 150.29 -67.24 146.53 -65.22 142.13 C-64.56 142.13 -63.9 142.13 -63.22 142.13 C-63.22 140.81 -63.22 139.49 -63.22 138.13 C-62.56 138.13 -61.9 138.13 -61.22 138.13 C-61.34 137.14 -61.34 137.14 -61.47 136.13 C-61.12 131.92 -59.25 128.79 -57.22 125.13 C-55.57 125.13 -53.92 125.13 -52.22 125.13 C-51.89 126.12 -51.56 127.11 -51.22 128.13 C-49.57 128.46 -47.92 128.79 -46.22 129.13 C-46.22 129.79 -46.22 130.45 -46.22 131.13 C-44.89 131.29 -44.89 131.29 -43.53 131.45 C-40.22 132.13 -40.22 132.13 -37.9 133.57 C-34.93 135.3 -32.31 136.01 -28.97 136.76 C-23.31 138.04 -23.31 138.04 -22.22 139.13 C-8.14 141.47 5.7 141.59 19.78 139.13 C21.45 137.8 21.45 137.8 22.78 136.13 C23.63 135.76 24.47 135.39 25.34 135.01 C28.59 132.51 29.01 130.36 29.7 126.41 C29.82 123.01 28.61 120.94 26.78 118.13 C26.49 117.39 26.2 116.65 25.91 115.88 C24.31 113.4 22.53 113.05 19.78 112.13 C19.16 111.78 18.54 111.43 17.91 111.07 C14.94 109.76 11.98 109.57 8.78 109.13 C6.42 108.54 4.11 107.85 1.78 107.13 C1.78 106.47 1.78 105.81 1.78 105.13 C0.83 105.19 -0.12 105.26 -1.09 105.32 C-5.21 105.33 -8.7 104.19 -12.59 102.93 C-15.23 102.13 -17.83 101.57 -20.53 101.07 C-23.95 100.42 -27.1 99.74 -30.22 98.13 C-30.55 97.47 -30.88 96.81 -31.22 96.13 C-32.17 96.05 -33.12 95.97 -34.09 95.88 C-42.56 94.89 -50.29 88.93 -56.22 83.13 C-56.22 82.47 -56.22 81.81 -56.22 81.13 C-56.88 81.13 -57.54 81.13 -58.22 81.13 C-58.49 80.33 -58.75 79.52 -59.03 78.7 C-59.42 77.85 -59.81 77 -60.22 76.13 C-61.21 75.8 -62.2 75.47 -63.22 75.13 C-63.22 73.48 -63.22 71.83 -63.22 70.13 C-63.88 70.13 -64.54 70.13 -65.22 70.13 C-67.48 62.08 -67.42 54.43 -67.22 46.13 C-66.56 46.13 -65.9 46.13 -65.22 46.13 C-65.28 44.59 -65.28 44.59 -65.34 43.01 C-65.22 39.26 -64.57 36.6 -63.22 33.13 C-62.56 33.13 -61.9 33.13 -61.22 33.13 C-61.22 31.81 -61.22 30.49 -61.22 29.13 C-60.56 29.13 -59.9 29.13 -59.22 29.13 C-58.99 28.41 -58.76 27.69 -58.53 26.95 C-56.95 23.56 -54.95 21.67 -52.22 19.13 C-51.52 18.37 -50.82 17.61 -50.09 16.82 C-48.22 15.13 -48.22 15.13 -45.22 15.13 C-45.22 14.47 -45.22 13.81 -45.22 13.13 C-44.56 13.13 -43.9 13.13 -43.22 13.13 C-43.22 12.47 -43.22 11.81 -43.22 11.13 C-41.9 11.13 -40.58 11.13 -39.22 11.13 C-39.22 10.47 -39.22 9.81 -39.22 9.13 C-27.11 3.75 -27.11 3.75 -20.22 3.13 C-19.89 2.8 -19.56 2.47 -19.22 2.13 C-15.6 1.81 -11.97 1.62 -8.34 1.41 C-5.02 1.12 -3.45 0 0 0 Z M62.78 16.13 C63.78 18.13 63.78 18.13 63.78 18.13 Z M-23.22 38.13 C-22.22 41.13 -22.22 41.13 -22.22 41.13 Z M-28.22 52.13 C-27.22 54.13 -27.22 54.13 -27.22 54.13 Z M68.78 115.13 C69.78 117.13 69.78 117.13 69.78 117.13 Z " fill="#525646" transform="translate(262.21875,758.8671875)"/>
<path d="M0 0 C0.79 -0.01 1.58 -0.02 2.39 -0.04 C4.45 -0.04 6.51 0.07 8.56 0.19 C11.15 2.77 10.8 4.51 10.81 8.03 C10.8 9.22 10.8 9.22 10.79 10.44 C10.79 11.26 10.79 12.07 10.79 12.91 C10.79 14.64 10.78 16.37 10.77 18.09 C10.75 20.74 10.75 23.39 10.75 26.04 C10.74 27.72 10.74 29.39 10.73 31.07 C10.73 31.86 10.73 32.66 10.73 33.48 C10.68 39.07 10.68 39.07 9.56 40.19 C8.12 40.33 6.68 40.41 5.23 40.47 C3.91 40.52 3.91 40.52 2.56 40.58 C1.17 40.63 1.17 40.63 -0.25 40.69 C-2.07 40.76 -3.89 40.83 -5.71 40.91 C-6.52 40.94 -7.33 40.97 -8.16 41 C-10.36 41.18 -12.31 41.62 -14.44 42.19 C-16.71 42.49 -18.98 42.78 -21.25 43.06 C-26.59 43.81 -30.65 44.79 -35.44 47.19 C-39.71 48.93 -43.86 50.47 -48.44 51.19 C-48.77 52.18 -49.1 53.17 -49.44 54.19 C-51.42 55.54 -53.43 56.87 -55.44 58.19 C-57.44 60.01 -59.36 61.82 -61.25 63.75 C-61.74 64.23 -62.23 64.71 -62.73 65.21 C-65.04 67.52 -66.39 69.04 -67.44 72.19 C-68.1 72.19 -68.76 72.19 -69.44 72.19 C-69.47 72.77 -69.51 73.35 -69.55 73.95 C-69.62 74.73 -69.68 75.51 -69.75 76.31 C-69.81 77.08 -69.87 77.84 -69.93 78.63 C-70.44 81.19 -70.44 81.19 -71.94 83.71 C-73.94 88.35 -73.88 92.33 -73.87 97.32 C-73.88 98.33 -73.89 99.33 -73.9 100.37 C-73.93 103.68 -73.94 106.99 -73.95 110.3 C-73.97 112.61 -73.98 114.91 -74 117.21 C-74.05 123.25 -74.08 129.3 -74.11 135.35 C-74.14 141.52 -74.18 147.69 -74.23 153.87 C-74.31 165.97 -74.38 178.08 -74.44 190.19 C-87.31 190.19 -100.18 190.19 -113.44 190.19 C-114.59 187.88 -114.56 186.57 -114.56 184.01 C-114.57 182.69 -114.57 182.69 -114.57 181.35 C-114.57 179.9 -114.57 179.9 -114.57 178.43 C-114.57 176.91 -114.57 176.91 -114.57 175.36 C-114.58 172 -114.57 168.64 -114.57 165.28 C-114.57 162.95 -114.57 160.62 -114.57 158.3 C-114.57 153.42 -114.57 148.54 -114.57 143.66 C-114.56 137.39 -114.57 131.12 -114.57 124.85 C-114.58 120.04 -114.57 115.24 -114.57 110.43 C-114.57 108.12 -114.57 105.81 -114.57 103.49 C-114.58 100.27 -114.57 97.04 -114.57 93.82 C-114.57 92.85 -114.57 91.88 -114.57 90.89 C-114.57 90.02 -114.57 89.14 -114.56 88.24 C-114.56 87.1 -114.56 87.1 -114.56 85.93 C-114.44 84.19 -114.44 84.19 -113.44 83.19 C-113.25 81.42 -113.25 81.42 -113.06 79.62 C-112.72 76.44 -112.01 73.78 -110.81 70.81 C-110.36 69.62 -109.9 68.42 -109.44 67.19 C-109.77 66.53 -110.1 65.87 -110.44 65.19 C-111.43 65.85 -112.42 66.51 -113.44 67.19 C-115.45 67.57 -115.45 67.57 -117.56 67.75 C-121.21 67.75 -121.21 67.75 -122.44 69.19 C-125.46 69.29 -128.45 69.33 -131.47 69.32 C-132.38 69.32 -133.28 69.32 -134.21 69.32 C-136.14 69.32 -138.06 69.32 -139.98 69.32 C-142.92 69.31 -145.87 69.32 -148.82 69.32 C-150.68 69.32 -152.55 69.32 -154.41 69.32 C-155.74 69.32 -155.74 69.32 -157.1 69.33 C-163.32 69.3 -163.32 69.3 -164.44 68.19 C-166.12 67.95 -167.81 67.77 -169.5 67.62 C-170.88 67.5 -170.88 67.5 -172.29 67.37 C-173 67.31 -173.71 67.25 -174.44 67.19 C-174.44 66.53 -174.44 65.87 -174.44 65.19 C-175.45 65.25 -176.46 65.31 -177.5 65.38 C-181.85 65.17 -184.52 64.04 -188.44 62.19 C-189.55 61.88 -190.66 61.57 -191.81 61.25 C-193.11 60.72 -193.11 60.72 -194.44 60.19 C-195.36 57.94 -195.55 56.62 -194.95 54.26 C-194.68 53.62 -194.41 52.97 -194.12 52.31 C-193.84 51.62 -193.56 50.94 -193.27 50.23 C-193 49.55 -192.72 48.88 -192.44 48.19 C-191.76 46.19 -191.09 44.19 -190.44 42.19 C-189.78 42.19 -189.12 42.19 -188.44 42.19 C-188.25 40.46 -188.25 40.46 -188.06 38.69 C-187.53 34.4 -186.55 30.35 -185.44 26.19 C-184.78 26.19 -184.12 26.19 -183.44 26.19 C-183.44 25.53 -183.44 24.87 -183.44 24.19 C-176.41 23.78 -170.16 25.11 -163.44 27.19 C-163.11 27.52 -162.78 27.85 -162.44 28.19 C-160.11 28.4 -157.77 28.56 -155.44 28.69 C-148.55 29.08 -148.55 29.08 -147.44 30.19 C-146.09 30.42 -144.73 30.6 -143.38 30.75 C-142.08 30.89 -140.78 31.04 -139.44 31.19 C-139.44 30.53 -139.44 29.87 -139.44 29.19 C-138.29 29.13 -137.15 29.07 -135.97 29 C-134.48 28.92 -132.99 28.83 -131.5 28.75 C-130.75 28.71 -129.99 28.67 -129.21 28.63 C-125.52 28.75 -125.52 28.75 -122.44 27.19 C-120.38 26.87 -118.32 26.68 -116.25 26.47 C-114.42 26.37 -114.42 26.37 -113.44 25.19 C-111.2 24.62 -108.95 24.11 -106.69 23.62 C-105.46 23.36 -104.22 23.09 -102.95 22.81 C-100 22.29 -97.42 22.06 -94.44 22.19 C-94.44 21.53 -94.44 20.87 -94.44 20.19 C-92.46 20.19 -90.48 20.19 -88.44 20.19 C-88.44 19.53 -88.44 18.87 -88.44 18.19 C-87.43 18.08 -86.42 17.98 -85.38 17.88 C-81.44 17.35 -81.44 17.35 -78.06 15.69 C-73.81 13.93 -69.99 13.49 -65.44 13.19 C-65.44 12.53 -65.44 11.87 -65.44 11.19 C-63.74 10.97 -63.74 10.97 -62 10.75 C-58.63 10.58 -58.63 10.58 -57.44 9.19 C-55.1 9.15 -52.77 9.15 -50.44 9.19 C-50.44 8.53 -50.44 7.87 -50.44 7.19 C-48.74 6.97 -48.74 6.97 -47 6.75 C-43.63 6.58 -43.63 6.58 -42.44 5.19 C-41.11 4.97 -39.77 4.82 -38.44 4.69 C-37.23 4.56 -37.23 4.56 -36 4.44 C-33.44 4.19 -33.44 4.19 -30.88 3.94 C-30.07 3.86 -29.27 3.77 -28.44 3.69 C-27.69 3.62 -26.95 3.54 -26.19 3.47 C-24.41 3.36 -24.41 3.36 -23.44 2.19 C-19.82 1.86 -16.19 1.67 -12.56 1.47 C-8.3 1.09 -4.62 0 0 0 Z " fill="#525747" transform="translate(1116.4375,740.8125)"/>
<path d="M0 0 C3.6 0.07 4.93 0.17 8 2.19 C10.48 5.71 12.51 9.31 14.5 13.12 C16.54 16.92 18.72 20.62 20.94 24.31 C21.51 25.27 21.51 25.27 22.09 26.25 C23.63 28.8 25.15 31.25 27.02 33.57 C28.25 35.38 28.25 35.38 28.25 39.38 C28.91 39.38 29.57 39.38 30.25 39.38 C31.25 41.04 32.25 42.71 33.25 44.38 C33.91 44.38 34.57 44.38 35.25 44.38 C35.58 45.04 35.91 45.69 36.25 46.38 C38.1 43.35 39.86 40.29 41.56 37.19 C43.49 33.71 45.44 30.25 47.44 26.81 C47.93 25.97 48.41 25.12 48.92 24.25 C49.36 23.63 49.8 23.01 50.25 22.38 C50.91 22.38 51.57 22.38 52.25 22.38 C52.44 21.51 52.44 21.51 52.63 20.62 C53.26 18.35 54.1 16.47 55.19 14.38 C55.53 13.72 55.87 13.05 56.21 12.38 C56.56 11.72 56.9 11.05 57.25 10.38 C57.92 9.04 58.59 7.71 59.25 6.38 C59.91 6.38 60.57 6.38 61.25 6.38 C61.39 5.57 61.54 4.77 61.69 3.94 C62.25 1.38 62.25 1.38 63.25 0.38 C65.08 0.28 66.92 0.25 68.75 0.25 C69.75 0.25 70.75 0.24 71.78 0.24 C74.25 0.38 74.25 0.38 75.25 1.38 C75.34 3.72 75.38 6.03 75.36 8.37 C75.36 9.1 75.36 9.84 75.36 10.59 C75.36 13.02 75.36 15.45 75.35 17.88 C75.35 19.56 75.34 21.24 75.34 22.92 C75.34 27.35 75.33 31.78 75.32 36.21 C75.31 40.73 75.3 45.25 75.3 49.76 C75.29 58.63 75.27 67.5 75.25 76.38 C73.1 76.4 70.96 76.42 68.81 76.44 C67.62 76.45 66.42 76.46 65.19 76.47 C62.25 76.38 62.25 76.38 61.25 75.38 C61.09 72.42 60.99 69.49 60.93 66.53 C60.91 65.64 60.89 64.75 60.87 63.84 C60.81 61 60.75 58.16 60.69 55.31 C60.64 53.39 60.6 51.47 60.56 49.54 C60.45 44.82 60.35 40.1 60.25 35.38 C59.59 35.38 58.93 35.38 58.25 35.38 C58 35.91 57.74 36.44 57.48 36.98 C57.14 37.69 56.79 38.4 56.44 39.12 C56.1 39.82 55.76 40.52 55.42 41.23 C54.25 43.38 54.25 43.38 52.79 45.32 C51.06 47.63 49.78 50.01 48.44 52.56 C47.38 54.5 46.32 56.44 45.25 58.38 C44.76 59.27 44.28 60.17 43.77 61.09 C42.4 63.42 41.14 65.44 39.25 67.38 C35.5 67.88 35.5 67.88 32.25 67.38 C31.26 67.87 31.26 67.87 30.25 68.38 C29.25 65.38 28.25 62.38 27.25 59.38 C26.26 58.88 26.26 58.88 25.25 58.38 C24.23 56.67 23.22 54.95 22.26 53.21 C21.44 51.72 20.57 50.26 19.69 48.81 C15.25 41.29 15.25 41.29 15.25 38.38 C14.59 38.38 13.93 38.38 13.25 38.38 C10.9 36.4 10.25 35.37 9.25 32.38 C8.92 46.89 8.59 61.41 8.25 76.38 C3.96 76.38 -0.33 76.38 -4.75 76.38 C-6.66 74.46 -5.88 71.01 -5.88 68.48 C-5.88 67.76 -5.88 67.04 -5.88 66.3 C-5.89 63.91 -5.89 61.52 -5.88 59.12 C-5.88 57.47 -5.88 55.81 -5.89 54.16 C-5.89 50.69 -5.89 47.21 -5.88 43.74 C-5.87 39.28 -5.88 34.81 -5.88 30.35 C-5.89 26.93 -5.89 23.51 -5.88 20.09 C-5.88 18.45 -5.88 16.8 -5.89 15.15 C-5.89 12.86 -5.88 10.56 -5.88 8.27 C-5.88 6.96 -5.88 5.65 -5.88 4.3 C-5.68 -0.32 -4.23 0.16 0 0 Z " fill="#19B2A1" transform="translate(806.75,981.625)"/>
<path d="M0 0 C4.29 0 8.58 0 13 0 C13.66 1.32 14.32 2.64 15 4 C19.14 10.05 23.94 15.59 28.83 21.04 C33.72 26.52 33.72 26.52 35.56 29.62 C37.27 32.44 39.36 34.38 41.79 36.57 C43 38 43 38 43 41 C43.99 40.67 44.98 40.34 46 40 C46 41.32 46 42.64 46 44 C46.99 44 47.98 44 49 44 C49.04 42.11 49.04 42.11 49.08 40.18 C49.17 35.51 49.27 30.84 49.37 26.17 C49.42 24.14 49.46 22.12 49.5 20.1 C49.55 17.19 49.62 14.29 49.68 11.38 C49.71 10.02 49.71 10.02 49.73 8.63 C49.75 7.79 49.77 6.95 49.79 6.08 C49.81 5.34 49.83 4.6 49.84 3.83 C50 2 50 2 51 0 C53.31 -0.03 55.62 -0.05 57.94 -0.06 C59.23 -0.07 60.51 -0.09 61.84 -0.1 C65 0 65 0 66 1 C66.09 3.34 66.13 5.66 66.11 8 C66.11 8.73 66.11 9.46 66.11 10.22 C66.11 12.64 66.11 15.07 66.1 17.5 C66.1 19.18 66.09 20.86 66.09 22.54 C66.09 26.97 66.08 31.41 66.07 35.84 C66.06 40.35 66.05 44.87 66.05 49.39 C66.04 58.26 66.02 67.13 66 76 C61.38 76 56.76 76 52 76 C51.01 74.02 50.02 72.04 49 70 C46.52 66.25 43.8 62.8 40.62 59.62 C36.72 55.72 33.39 51.36 30 47 C29.43 46.28 28.85 45.56 28.26 44.82 C27 43 27 43 27 41 C25.51 40.5 25.51 40.5 24 40 C22.75 38.48 22.75 38.48 21.56 36.62 C19.53 33.48 18.23 32.42 15 30 C14.67 45.18 14.34 60.36 14 76 C9.71 76 5.42 76 1 76 C-0.49 73.01 -0.12 70.31 -0.11 66.98 C-0.11 66.26 -0.11 65.54 -0.11 64.79 C-0.11 62.4 -0.11 60.01 -0.1 57.62 C-0.1 55.96 -0.09 54.3 -0.09 52.65 C-0.09 48.29 -0.08 43.92 -0.07 39.56 C-0.06 35.11 -0.05 30.66 -0.05 26.21 C-0.04 17.47 -0.02 8.74 0 0 Z " fill="#19B2A1" transform="translate(609,982)"/>
<path d="M0 0 C2.92 1.42 5.46 2.93 8.07 4.87 C8.77 5.38 9.47 5.9 10.19 6.43 C17.06 11.94 22.7 19.24 23.75 28.18 C23.86 29.4 23.96 30.61 24.07 31.87 C24.4 32.86 24.73 33.85 25.07 34.87 C25.48 39.99 24.65 43.88 22.89 48.62 C22.05 50.8 22.05 50.8 21.55 52.87 C19.28 60.9 12.89 66.16 6.29 70.84 C-0.77 74.77 -7.15 75.41 -15.12 75.49 C-16.04 75.5 -16.95 75.51 -17.89 75.53 C-31.58 75.24 -40.75 68.4 -49.93 58.87 C-50.47 58.41 -51.01 57.96 -51.57 57.49 C-53.52 55.16 -53.9 52.88 -54.56 49.93 C-54.8 48.89 -55.04 47.85 -55.29 46.78 C-55.5 45.82 -55.71 44.86 -55.93 43.87 C-56.12 43.14 -56.31 42.41 -56.51 41.65 C-58.45 33.51 -55.83 24.17 -51.61 17.17 C-46.31 9.89 -40.28 4.26 -31.93 0.87 C-31.14 0.51 -30.34 0.16 -29.52 -0.2 C-21.35 -3.14 -8.18 -2.87 0 0 Z M-31.93 17.87 C-37.55 23.75 -41.1 29.47 -41.56 37.74 C-41.29 45.48 -37.89 50.99 -32.43 56.3 C-31.61 56.82 -30.78 57.34 -29.93 57.87 C-29.07 58.42 -28.2 58.98 -27.31 59.55 C-19.94 62.42 -10.84 63.01 -3.5 59.8 C-2.98 59.5 -2.46 59.19 -1.93 58.87 C-1.93 58.21 -1.93 57.55 -1.93 56.87 C-1.34 56.6 -0.74 56.33 -0.12 56.05 C4.76 53.4 7.45 49.09 9.07 43.87 C9.39 39.51 9.31 35.23 9.07 30.87 C8.41 30.87 7.75 30.87 7.07 30.87 C7.07 29.55 7.07 28.23 7.07 26.87 C6.41 26.87 5.75 26.87 5.07 26.87 C5.4 25.88 5.73 24.89 6.07 23.87 C5.41 23.87 4.75 23.87 4.07 23.87 C3.84 23.12 3.61 22.38 3.38 21.62 C1.34 17.34 -2.07 15.44 -5.93 12.87 C-16 9.75 -23.68 11.3 -31.93 17.87 Z " fill="#19B1A0" transform="translate(753.93359375,983.1328125)"/>
<path d="M0 0 C1.02 -0.01 2.03 -0.02 3.08 -0.04 C8.66 -0.01 12.59 0.32 17.44 3.38 C18.21 3.76 18.98 4.15 19.77 4.54 C22.61 5.96 22.61 5.96 25.44 7.38 C25.44 8.03 25.44 8.7 25.44 9.38 C26.47 10.16 27.5 10.94 28.56 11.75 C34.26 16.65 37.82 22.44 38.76 29.93 C38.96 32.81 39.04 35.67 39.06 38.56 C39.08 39.95 39.08 39.95 39.1 41.37 C38.89 51.48 34.77 59.3 28.25 66.94 C17.43 76.32 5.45 77.2 -8.28 76.57 C-16.51 75.87 -23.06 71.12 -29.56 66.38 C-30.66 65.62 -30.66 65.62 -31.77 64.86 C-34.13 62.91 -34.24 61.34 -34.56 58.38 C-35.22 58.38 -35.88 58.38 -36.56 58.38 C-42.62 50.3 -42.28 40 -41.56 30.38 C-40.86 27.64 -39.97 25.86 -38.56 23.38 C-38.25 22.51 -37.94 21.64 -37.62 20.75 C-36.34 17.87 -34.6 15.78 -32.56 13.38 C-32.13 12.73 -31.7 12.08 -31.26 11.41 C-29.2 8.93 -27.17 7.81 -24.31 6.31 C-23.4 5.83 -22.49 5.34 -21.55 4.84 C-20.56 4.36 -19.58 3.87 -18.56 3.38 C-17.53 2.83 -16.49 2.28 -15.43 1.71 C-10.47 -0.37 -5.29 -0.06 0 0 Z M-8.56 14.75 C-11.09 16.1 -13.41 17.33 -16.14 18.22 C-21.35 20.7 -23.55 26.21 -25.56 31.38 C-27.17 38.87 -26.83 46.44 -22.69 53.06 C-17.72 59.02 -11.52 62.17 -3.88 63.25 C3.87 63.7 11.15 62.18 17.07 56.92 C19.08 54.65 20.18 52.12 21.44 49.38 C21.83 48.63 22.22 47.89 22.62 47.12 C25.3 38.07 22.72 29.47 18.44 21.38 C14.34 16.2 7.67 13.76 1.44 12.38 C-2.62 12.04 -5 12.82 -8.56 14.75 Z " fill="#19B1A1" transform="translate(546.5625,981.625)"/>
<path d="M0 0 C1.59 -0 1.59 -0 3.21 -0.01 C4.93 -0.01 4.93 -0.01 6.69 -0 C8.45 -0 8.45 -0 10.25 -0.01 C12.73 -0.01 15.22 -0.01 17.7 -0 C21.52 0 25.34 -0 29.16 -0.01 C31.57 -0.01 33.97 -0.01 36.38 -0 C38.11 -0.01 38.11 -0.01 39.87 -0.01 C40.93 -0.01 41.98 -0 43.07 0 C44.48 0 44.48 0 45.91 0 C48.04 0.13 48.04 0.13 49.04 1.13 C49.53 7.56 49.53 7.56 50.04 14.13 C37.17 14.46 24.3 14.79 11.04 15.13 C11.04 20.41 11.04 25.69 11.04 31.13 C14.48 31.11 14.48 31.11 18 31.09 C20.22 31.09 22.44 31.08 24.65 31.07 C26.2 31.07 27.74 31.06 29.29 31.05 C31.51 31.04 33.72 31.04 35.94 31.03 C36.63 31.03 37.33 31.02 38.04 31.02 C39.71 31.02 41.37 31.07 43.04 31.13 C45.88 33.97 44.04 39.12 44.04 43.13 C27.7 43.62 27.7 43.62 11.04 44.13 C11.04 50.07 11.04 56.01 11.04 62.13 C13.68 62.12 16.33 62.11 19.06 62.09 C21.62 62.09 24.18 62.08 26.74 62.07 C28.52 62.07 30.3 62.06 32.08 62.05 C34.63 62.04 37.19 62.04 39.75 62.03 C40.55 62.03 41.35 62.02 42.17 62.02 C47.81 62.02 47.81 62.02 50.04 63.13 C50.04 67.42 50.04 71.71 50.04 76.13 C42.22 76.15 34.41 76.17 26.59 76.18 C23.93 76.19 21.27 76.2 18.61 76.2 C14.8 76.22 10.98 76.22 7.17 76.23 C5.37 76.23 5.37 76.23 3.54 76.24 C1.88 76.24 1.88 76.24 0.2 76.24 C-0.78 76.25 -1.75 76.25 -2.75 76.25 C-4.96 76.13 -4.96 76.13 -5.96 75.13 C-6.06 72.83 -6.09 70.54 -6.09 68.24 C-6.09 67.52 -6.1 66.8 -6.1 66.06 C-6.1 63.66 -6.1 61.27 -6.1 58.88 C-6.1 57.22 -6.1 55.57 -6.1 53.91 C-6.1 50.44 -6.1 46.97 -6.09 43.49 C-6.09 39.03 -6.09 34.57 -6.1 30.1 C-6.1 26.69 -6.1 23.27 -6.1 19.85 C-6.1 18.2 -6.1 16.55 -6.1 14.91 C-6.1 12.61 -6.1 10.32 -6.09 8.02 C-6.09 6.71 -6.09 5.4 -6.09 4.05 C-5.88 -0.73 -4.32 0 0 0 Z M9.04 16.13 C9.04 20.42 9.04 24.71 9.04 29.13 C9.37 29.13 9.7 29.13 10.04 29.13 C10.04 24.84 10.04 20.55 10.04 16.13 C9.71 16.13 9.38 16.13 9.04 16.13 Z M9.04 45.13 C9.04 50.08 9.04 55.03 9.04 60.13 C9.37 60.13 9.7 60.13 10.04 60.13 C10.04 55.18 10.04 50.23 10.04 45.13 C9.71 45.13 9.38 45.13 9.04 45.13 Z " fill="#18B1A0" transform="translate(351.962890625,981.87060546875)"/>
<path d="M0 0 C1.03 -0.02 2.06 -0.03 3.12 -0.05 C12.19 -0.05 12.19 -0.05 16.44 3.31 C17.26 3.62 18.09 3.93 18.94 4.25 C23.19 6.06 25.89 8.49 28.44 12.31 C28.33 15.44 27.19 16.61 25.19 19.06 C22.44 21.31 22.44 21.31 19.94 21.88 C16.64 21.13 15.05 19.45 12.44 17.31 C6.86 14.1 2.85 12.59 -3.56 14.31 C-4.27 14.48 -4.98 14.65 -5.71 14.82 C-13.22 16.86 -19.03 21.24 -23.06 27.94 C-25.48 33.44 -25.23 39.44 -24.56 45.31 C-23.23 48.82 -23.23 48.82 -21.56 51.31 C-21.56 52.3 -21.56 53.29 -21.56 54.31 C-20.57 54.31 -19.58 54.31 -18.56 54.31 C-16.9 55.98 -15.23 57.65 -13.56 59.31 C-11.39 60.17 -11.39 60.17 -9.56 60.31 C-9.56 60.97 -9.56 61.63 -9.56 62.31 C-0.47 62.58 6.7 62.62 14.44 57.31 C15.1 56.65 15.76 55.99 16.44 55.31 C21.31 55.45 24.09 57.97 27.44 61.31 C28.5 63.94 28.5 63.94 28.44 66.31 C26.34 68.85 23.93 70.31 21.06 71.88 C20.31 72.29 19.56 72.7 18.79 73.13 C9.27 77.92 -3.63 78.47 -13.94 75.67 C-18.13 74.05 -21.86 71.87 -25.56 69.31 C-26.34 68.78 -27.12 68.25 -27.93 67.71 C-28.47 67.25 -29.01 66.79 -29.56 66.31 C-29.56 65.65 -29.56 64.99 -29.56 64.31 C-30.22 64.31 -30.88 64.31 -31.56 64.31 C-33.07 62.45 -33.07 62.45 -34.69 60 C-35.5 58.8 -35.5 58.8 -36.32 57.57 C-37.56 55.31 -37.56 55.31 -37.56 52.31 C-38.22 52.31 -38.88 52.31 -39.56 52.31 C-39.62 51.67 -39.68 51.04 -39.75 50.38 C-39.87 49.14 -39.87 49.14 -40 47.88 C-40.12 46.64 -40.12 46.64 -40.25 45.38 C-40.35 43.33 -40.35 43.33 -41.56 42.31 C-41.69 38.81 -41.69 38.81 -41.56 35.31 C-41.07 34.82 -41.07 34.82 -40.56 34.31 C-40.44 33.12 -40.31 31.92 -40.19 30.69 C-39.42 24.05 -36.54 18.58 -32.56 13.31 C-31.9 13.31 -31.24 13.31 -30.56 13.31 C-30.56 12.65 -30.56 11.99 -30.56 11.31 C-29.9 11.31 -29.24 11.31 -28.56 11.31 C-28.56 10.65 -28.56 9.99 -28.56 9.31 C-26 7.02 -25.08 6.31 -21.56 6.31 C-21.56 5.65 -21.56 4.99 -21.56 4.31 C-20.24 4.31 -18.92 4.31 -17.56 4.31 C-17.56 3.65 -17.56 2.99 -17.56 2.31 C-11.78 -0.18 -6.19 -0.02 0 0 Z M20.44 18.31 C20.77 18.97 21.1 19.63 21.44 20.31 C22.1 19.65 22.76 18.99 23.44 18.31 C22.45 18.31 21.46 18.31 20.44 18.31 Z " fill="#19B0A0" transform="translate(461.5625,981.6875)"/>
<path d="M0 0 C2.25 -0.14 4.5 -0.23 6.75 -0.31 C8 -0.37 9.26 -0.43 10.55 -0.49 C14 0 14 0 16.28 2.26 C17.13 3.62 17.13 3.62 18 5 C18.49 5.7 18.98 6.41 19.48 7.13 C19.9 7.79 20.32 8.45 20.75 9.12 C21.18 9.79 21.61 10.45 22.05 11.13 C23 13 23 13 23 16 C23.66 16 24.32 16 25 16 C25.58 17.09 25.58 17.09 26.17 18.2 C30.21 25.83 30.21 25.83 35 33 C35.66 33 36.32 33 37 33 C38.32 30.69 39.64 28.38 41 26 C41.66 26 42.32 26 43 26 C43 24.68 43 23.36 43 22 C43.66 22 44.32 22 45 22 C45.1 21.44 45.21 20.89 45.31 20.31 C46.14 17.53 47.45 15.45 49 13 C49.45 12.24 49.91 11.47 50.38 10.69 C50.91 9.8 51.45 8.91 52 8 C52.28 7.31 52.56 6.62 52.84 5.91 C54.01 3.4 54.9 1.82 57 0 C61.42 -0.87 65.58 -0.89 70 0 C70.99 1.49 70.99 1.49 72 3 C71.52 3.75 71.04 4.5 70.54 5.27 C69.59 6.74 69.59 6.74 68.62 8.25 C68 9.22 67.37 10.2 66.73 11.2 C65.35 13.44 64.12 15.63 63 18 C62.34 18 61.68 18 61 18 C60.89 18.55 60.79 19.1 60.68 19.67 C59.86 22.48 58.61 24.76 57.19 27.31 C56.38 28.77 56.38 28.77 55.55 30.25 C54.78 31.61 54.78 31.61 54 33 C53.62 33.68 53.24 34.36 52.86 35.06 C50.29 39.65 47.4 43.99 44.4 48.31 C42.76 51.46 42.65 53.43 42.71 56.96 C42.72 58.07 42.73 59.18 42.74 60.33 C42.76 61.48 42.79 62.63 42.81 63.81 C42.83 64.98 42.84 66.15 42.85 67.36 C42.89 70.24 42.94 73.12 43 76 C40.88 76.05 38.75 76.09 36.62 76.12 C35.44 76.15 34.26 76.17 33.04 76.2 C30 76 30 76 28 74 C27.76 71.73 27.76 71.73 27.76 68.91 C27.75 67.88 27.73 66.84 27.71 65.78 C27.7 63.63 27.69 61.47 27.7 59.31 C27.55 51.68 25.94 46.51 22 40 C21.63 39.35 21.26 38.7 20.88 38.03 C19.84 36.23 18.77 34.46 17.69 32.69 C17.31 32.06 16.93 31.43 16.53 30.79 C15.75 29.5 14.96 28.21 14.17 26.92 C13.01 25.02 11.86 23.12 10.71 21.22 C10 20.04 9.28 18.86 8.56 17.69 C7.61 16.12 7.61 16.12 6.63 14.51 C5.1 11.96 5.1 11.96 3 10 C0.88 6.26 0 4.37 0 0 Z " fill="#19B2A1" transform="translate(901,982)"/>
<path d="M0 0 C0.33 0 0.66 0 1 0 C1 95.37 1 190.74 1 289 C0.67 289 0.34 289 0 289 C0 193.63 0 98.26 0 0 Z " fill="#000100" transform="translate(839,359)"/>
<path d="M0 0 C0.33 0 0.66 0 1 0 C1 73.26 1 146.52 1 222 C0.67 222 0.34 222 0 222 C0 148.74 0 75.48 0 0 Z " fill="#000100" transform="translate(551,425)"/>
<path d="M0 0 C30.36 0 60.72 0 92 0 C92 0.33 92 0.66 92 1 C61.64 1 31.28 1 0 1 C0 0.67 0 0.34 0 0 Z " fill="#000100" transform="translate(615,901)"/>
<path d="M0 0 C25.74 0 51.48 0 78 0 C78 0.33 78 0.66 78 1 C52.26 1 26.52 1 0 1 C0 0.67 0 0.34 0 0 Z " fill="#000100" transform="translate(614,649)"/>
<path d="M0 0 C0.33 0 0.66 0 1 0 C1 24.75 1 49.5 1 75 C0.67 75 0.34 75 0 75 C0 50.25 0 25.5 0 0 Z " fill="#000100" transform="translate(676,983)"/>
<path d="M0 0 C12.54 0 25.08 0 38 0 C38 0.33 38 0.66 38 1 C25.46 1 12.92 1 0 1 C0 0.67 0 0.34 0 0 Z " fill="#000100" transform="translate(363,997)"/>
<path d="M0 0 C11.22 0 22.44 0 34 0 C34 0.33 34 0.66 34 1 C22.78 1 11.56 1 0 1 C0 0.67 0 0.34 0 0 Z " fill="#000100" transform="translate(363,1026)"/>
<path d="M0 0 C0.33 0 0.66 0 1 0 C1 7.59 1 15.18 1 23 C0.67 23 0.34 23 0 23 C0 15.41 0 7.82 0 0 Z " fill="#000100" transform="translate(944,1033)"/>
<path d="M0 0 C6.27 0 12.54 0 19 0 C19 0.33 19 0.66 19 1 C12.73 1 6.46 1 0 1 C0 0.67 0 0.34 0 0 Z " fill="#000100" transform="translate(450,919)"/>
<path d="M0 0 C0.33 0 0.66 0 1 0 C1 5.94 1 11.88 1 18 C0.67 18 0.34 18 0 18 C0 12.06 0 6.12 0 0 Z " fill="#000100" transform="translate(585,1011)"/>
<path d="M0 0 C0.33 0 0.66 0 1 0 C1 5.28 1 10.56 1 16 C0.67 16 0.34 16 0 16 C0 10.72 0 5.44 0 0 Z " fill="#000100" transform="translate(522,1013)"/>
<path d="M0 0 C0.33 0 0.66 0 1 0 C1 3.96 1 7.92 1 12 C0.67 12 0.34 12 0 12 C0 8.04 0 4.08 0 0 Z " fill="#000100" transform="translate(714,1015)"/>
<path d="M0 0 C0.33 0 0.66 0 1 0 C1 3.96 1 7.92 1 12 C0.67 12 0.34 12 0 12 C0 8.04 0 4.08 0 0 Z " fill="#000100" transform="translate(397,1014)"/>
<path d="M0 0 C0.33 0 0.66 0 1 0 C1 3.96 1 7.92 1 12 C0.67 12 0.34 12 0 12 C0 8.04 0 4.08 0 0 Z " fill="#000100" transform="translate(402,983)"/>
<path d="M0 0 C3.62 -0.19 3.62 -0.19 7 0 C7 0.33 7 0.66 7 1 C4.03 1.66 1.06 2.32 -2 3 C-1.34 2.01 -0.68 1.02 0 0 Z " fill="#000100" transform="translate(584,389)"/>
<path d="M0 0 C3.3 0 6.6 0 10 0 C10 0.33 10 0.66 10 1 C6.7 1 3.4 1 0 1 C0 0.67 0 0.34 0 0 Z " fill="#000100" transform="translate(274,794)"/>
<path d="M0 0 C3.3 0 6.6 0 10 0 C10 0.33 10 0.66 10 1 C6.7 1 3.4 1 0 1 C0 0.67 0 0.34 0 0 Z " fill="#000100" transform="translate(813,330)"/>
<path d="M0 0 C0.33 0 0.66 0 1 0 C1 2.97 1 5.94 1 9 C0.67 9 0.34 9 0 9 C0 6.03 0 3.06 0 0 Z " fill="#000100" transform="translate(402,1047)"/>
<path d="M0 0 C2.97 0 5.94 0 9 0 C9 0.33 9 0.66 9 1 C6.03 1 3.06 1 0 1 C0 0.67 0 0.34 0 0 Z " fill="#000100" transform="translate(253,794)"/>
<path d="M0 0 C2.31 0 4.62 0 7 0 C6.34 0.66 5.68 1.32 5 2 C2.38 1.62 2.38 1.62 0 1 C0 0.67 0 0.34 0 0 Z " fill="#000100" transform="translate(507,389)"/>
<path d="M0 0 C1.98 0 3.96 0 6 0 C5.34 0.66 4.68 1.32 4 2 C2.68 1.34 1.36 0.68 0 0 Z " fill="#000100" transform="translate(258,864)"/>
<path d="M0 0 C1.98 0 3.96 0 6 0 C5.34 0.66 4.68 1.32 4 2 C2.68 1.34 1.36 0.68 0 0 Z " fill="#000100" transform="translate(936,806)"/>
<path d="M0 0 C2.31 0 4.62 0 7 0 C7 0.33 7 0.66 7 1 C4.69 1 2.38 1 0 1 C0 0.67 0 0.34 0 0 Z " fill="#000100" transform="translate(848,328)"/>
<path d="M0 0 C1.98 0 3.96 0 6 0 C6 0.33 6 0.66 6 1 C4.02 1 2.04 1 0 1 C0 0.67 0 0.34 0 0 Z " fill="#000100" transform="translate(742,997)"/>
<path d="M0 0 C0.66 0 1.32 0 2 0 C2 1.32 2 2.64 2 4 C1.34 3.67 0.68 3.34 0 3 C0 2.01 0 1.02 0 0 Z " fill="#000100" transform="translate(916,928)"/>
<path d="M0 0 C1.98 0 3.96 0 6 0 C6 0.33 6 0.66 6 1 C4.02 1 2.04 1 0 1 C0 0.67 0 0.34 0 0 Z " fill="#000100" transform="translate(291,930)"/>
<path d="M0 0 C1.98 0 3.96 0 6 0 C6 0.33 6 0.66 6 1 C4.02 1 2.04 1 0 1 C0 0.67 0 0.34 0 0 Z " fill="#000100" transform="translate(224,930)"/>
<path d="M0 0 C1.32 0 2.64 0 4 0 C3.67 0.99 3.34 1.98 3 3 C3 2.34 3 1.68 3 1 C2.01 0.67 1.02 0.34 0 0 Z " fill="#000100" transform="translate(227,855)"/>
<path d="M0 0 C1.98 0 3.96 0 6 0 C6 0.33 6 0.66 6 1 C4.02 1 2.04 1 0 1 C0 0.67 0 0.34 0 0 Z " fill="#000100" transform="translate(1088,785)"/>
<path d="M0 0 C1.98 0 3.96 0 6 0 C6 0.33 6 0.66 6 1 C4.02 1 2.04 1 0 1 C0 0.67 0 0.34 0 0 Z " fill="#000100" transform="translate(597,388)"/>
<path d="M0 0 C1.98 0 3.96 0 6 0 C6 0.33 6 0.66 6 1 C4.02 1 2.04 1 0 1 C0 0.67 0 0.34 0 0 Z " fill="#000100" transform="translate(494,388)"/>
<path d="M0 0 C1.98 0 3.96 0 6 0 C6 0.33 6 0.66 6 1 C4.02 1 2.04 1 0 1 C0 0.67 0 0.34 0 0 Z " fill="#000100" transform="translate(606,386)"/>
<path d="M0 0 C1.98 0 3.96 0 6 0 C6 0.33 6 0.66 6 1 C4.02 1 2.04 1 0 1 C0 0.67 0 0.34 0 0 Z " fill="#000100" transform="translate(728,348)"/>
<path d="M0 0 C1.98 0 3.96 0 6 0 C6 0.33 6 0.66 6 1 C4.02 1 2.04 1 0 1 C0 0.67 0 0.34 0 0 Z " fill="#000100" transform="translate(762,339)"/>
<path d="M0 0 C1.98 0 3.96 0 6 0 C6 0.33 6 0.66 6 1 C4.02 1 2.04 1 0 1 C0 0.67 0 0.34 0 0 Z " fill="#000100" transform="translate(800,331)"/>
<path d="M0 0 C0.33 0 0.66 0 1 0 C1 1.65 1 3.3 1 5 C0.67 5 0.34 5 0 5 C0 3.35 0 1.7 0 0 Z " fill="#000100" transform="translate(779,1018)"/>
<path d="M0 0 C1.65 0 3.3 0 5 0 C5 0.33 5 0.66 5 1 C3.35 1 1.7 1 0 1 C0 0.67 0 0.34 0 0 Z " fill="#000100" transform="translate(479,1004)"/>
<path d="M0 0 C1.65 0 3.3 0 5 0 C5 0.33 5 0.66 5 1 C3.35 1 1.7 1 0 1 C0 0.67 0 0.34 0 0 Z " fill="#000100" transform="translate(730,997)"/>
<path d="M0 0 C1.65 0 3.3 0 5 0 C5 0.33 5 0.66 5 1 C3.35 1 1.7 1 0 1 C0 0.67 0 0.34 0 0 Z " fill="#000100" transform="translate(550,997)"/>
<path d="M0 0 C1.65 0 3.3 0 5 0 C5 0.33 5 0.66 5 1 C3.35 1 1.7 1 0 1 C0 0.67 0 0.34 0 0 Z " fill="#000100" transform="translate(453,997)"/>
<path d="M0 0 C1.65 0 3.3 0 5 0 C5 0.33 5 0.66 5 1 C3.35 1 1.7 1 0 1 C0 0.67 0 0.34 0 0 Z " fill="#000100" transform="translate(543,995)"/>
<path d="M0 0 C1.65 0 3.3 0 5 0 C5 0.33 5 0.66 5 1 C3.35 1 1.7 1 0 1 C0 0.67 0 0.34 0 0 Z " fill="#000100" transform="translate(460,995)"/>
<path d="M0 0 C1.65 0 3.3 0 5 0 C5 0.33 5 0.66 5 1 C3.35 1 1.7 1 0 1 C0 0.67 0 0.34 0 0 Z " fill="#000100" transform="translate(212,926)"/>
<path d="M0 0 C1.32 0.33 2.64 0.66 4 1 C3.01 1.5 3.01 1.5 2 2 C1.34 1.34 0.68 0.68 0 0 Z " fill="#000100" transform="translate(811,884)"/>
<path d="M0 0 C1.65 0 3.3 0 5 0 C5 0.33 5 0.66 5 1 C3.35 1 1.7 1 0 1 C0 0.67 0 0.34 0 0 Z " fill="#000100" transform="translate(250,863)"/>
<path d="M0 0 C1.65 0 3.3 0 5 0 C5 0.33 5 0.66 5 1 C3.35 1 1.7 1 0 1 C0 0.67 0 0.34 0 0 Z " fill="#000100" transform="translate(923,803)"/>
<path d="M0 0 C1.65 0 3.3 0 5 0 C5 0.33 5 0.66 5 1 C3.35 1 1.7 1 0 1 C0 0.67 0 0.34 0 0 Z " fill="#000100" transform="translate(486,386)"/>
<path d="M0 0 C1.65 0 3.3 0 5 0 C5 0.33 5 0.66 5 1 C3.35 1 1.7 1 0 1 C0 0.67 0 0.34 0 0 Z " fill="#000100" transform="translate(613,384)"/>
<path d="M0 0 C1.65 0 3.3 0 5 0 C5 0.33 5 0.66 5 1 C3.35 1 1.7 1 0 1 C0 0.67 0 0.34 0 0 Z " fill="#000100" transform="translate(646,375)"/>
<path d="M0 0 C0.33 0.66 0.66 1.32 1 2 C-0.32 1.67 -1.64 1.34 -3 1 C-2.01 0.67 -1.02 0.34 0 0 Z " fill="#000100" transform="translate(777,336)"/>
<path d="M0 0 C1.65 0 3.3 0 5 0 C5 0.33 5 0.66 5 1 C3.35 1 1.7 1 0 1 C0 0.67 0 0.34 0 0 Z " fill="#000100" transform="translate(829,328)"/>
<path d="M0 0 C1 4 1 4 1 4 Z " fill="#000100" transform="translate(491,1044)"/>
<path d="M0 0 C4 1 4 1 4 1 Z " fill="#000100" transform="translate(538,997)"/>
<path d="M0 0 C4 1 4 1 4 1 Z " fill="#000100" transform="translate(466,997)"/>
<path d="M0 0 C0.33 0.99 0.66 1.98 1 3 C0.34 2.67 -0.32 2.34 -1 2 C-0.67 1.34 -0.34 0.68 0 0 Z " fill="#000100" transform="translate(612,898)"/>
<path d="M0 0 C1 4 1 4 1 4 Z " fill="#000100" transform="translate(331,891)"/>
<path d="M0 0 C4 1 4 1 4 1 Z " fill="#000100" transform="translate(831,890)"/>
<path d="M0 0 C0.66 0 1.32 0 2 0 C1.67 0.99 1.34 1.98 1 3 C0.67 2.01 0.34 1.02 0 0 Z " fill="#000100" transform="translate(751,881)"/>
<path d="M0 0 C0.99 0.5 0.99 0.5 2 1 C1.67 1.66 1.34 2.32 1 3 C0.67 2.01 0.34 1.02 0 0 Z " fill="#000100" transform="translate(437,829)"/>
<path d="M0 0 C0.66 0 1.32 0 2 0 C1.67 0.99 1.34 1.98 1 3 C0.67 2.01 0.34 1.02 0 0 Z " fill="#000100" transform="translate(432,821)"/>
<path d="M0 0 C0.66 0 1.32 0 2 0 C1.67 0.99 1.34 1.98 1 3 C0.67 2.01 0.34 1.02 0 0 Z " fill="#000100" transform="translate(704,803)"/>
<path d="M0 0 C0.33 0.99 0.66 1.98 1 3 C0.34 2.67 -0.32 2.34 -1 2 C-0.67 1.34 -0.34 0.68 0 0 Z " fill="#000100" transform="translate(239,802)"/>
<path d="M0 0 C0.66 0 1.32 0 2 0 C1.67 0.99 1.34 1.98 1 3 C0.67 2.01 0.34 1.02 0 0 Z " fill="#000100" transform="translate(907,794)"/>
<path d="M0 0 C1 4 1 4 1 4 Z " fill="#000100" transform="translate(554,791)"/>
<path d="M0 0 C1 4 1 4 1 4 Z " fill="#000100" transform="translate(667,726)"/>
<path d="M0 0 C4 1 4 1 4 1 Z " fill="#000100" transform="translate(479,384)"/>
<path d="M0 0 C4 1 4 1 4 1 Z " fill="#000100" transform="translate(641,377)"/>
<path d="M0 0 C4 1 4 1 4 1 Z " fill="#000100" transform="translate(452,377)"/>
<path d="M0 0 C4 1 4 1 4 1 Z " fill="#000100" transform="translate(668,368)"/>
<path d="M0 0 C4 1 4 1 4 1 Z " fill="#000100" transform="translate(755,340)"/>
<path d="M0 0 C3 1 3 1 3 1 Z " fill="#000100" transform="translate(558,1057)"/>
<path d="M0 0 C3 1 3 1 3 1 Z " fill="#000100" transform="translate(531,1057)"/>
<path d="M0 0 C3 1 3 1 3 1 Z " fill="#000100" transform="translate(522,1053)"/>
<path d="" fill="#000100" transform="translate(0,0)"/>
<path d="" fill="#000100" transform="translate(0,0)"/>
<path d="" fill="#000100" transform="translate(0,0)"/>
<path d="M0 0 C3 1 3 1 3 1 Z " fill="#000100" transform="translate(737,995)"/>
<path d="" fill="#000100" transform="translate(0,0)"/>
<path d="" fill="#000100" transform="translate(0,0)"/>
<path d="M0 0 C3 1 3 1 3 1 Z " fill="#000100" transform="translate(298,928)"/>
<path d="M0 0 C0.33 0.66 0.66 1.32 1 2 C0.34 1.67 -0.32 1.34 -1 1 C-0.67 0.67 -0.34 0.34 0 0 Z " fill="#000100" transform="translate(304,925)"/>
<path d="M0 0 C0.66 0.66 1.32 1.32 2 2 C1.34 2 0.68 2 0 2 C0 1.34 0 0.68 0 0 Z " fill="#000100" transform="translate(208,923)"/>
<path d="M0 0 C0.33 0.66 0.66 1.32 1 2 C0.34 1.67 -0.32 1.34 -1 1 C-0.67 0.67 -0.34 0.34 0 0 Z " fill="#000100" transform="translate(471,914)"/>
<path d="M0 0 C3 1 3 1 3 1 Z " fill="#000100" transform="translate(827,888)"/>
<path d="M0 0 C0.66 0 1.32 0 2 0 C1.67 0.66 1.34 1.32 1 2 C0.67 1.34 0.34 0.68 0 0 Z " fill="#000100" transform="translate(742,868)"/>
<path d="M0 0 C0.33 0.66 0.66 1.32 1 2 C0.34 1.67 -0.32 1.34 -1 1 C-0.67 0.67 -0.34 0.34 0 0 Z " fill="#000100" transform="translate(500,865)"/>
<path d="M0 0 C3 1 3 1 3 1 Z " fill="#000100" transform="translate(242,861)"/>
<path d="" fill="#000100" transform="translate(0,0)"/>
<path d="" fill="#000100" transform="translate(0,0)"/>
<path d="" fill="#000100" transform="translate(0,0)"/>
<path d="" fill="#000100" transform="translate(0,0)"/>
<path d="M0 0 C0.66 0 1.32 0 2 0 C1.67 0.66 1.34 1.32 1 2 C0.67 1.34 0.34 0.68 0 0 Z " fill="#000100" transform="translate(731,850)"/>
<path d="M0 0 C0.66 0 1.32 0 2 0 C1.67 0.66 1.34 1.32 1 2 C0.67 1.34 0.34 0.68 0 0 Z " fill="#000100" transform="translate(448,848)"/>
<path d="" fill="#000100" transform="translate(0,0)"/>
<path d="" fill="#000100" transform="translate(0,0)"/>
<path d="" fill="#000100" transform="translate(0,0)"/>
<path d="" fill="#000100" transform="translate(0,0)"/>
<path d="M0 0 C0.66 0 1.32 0 2 0 C1.67 0.66 1.34 1.32 1 2 C0.67 1.34 0.34 0.68 0 0 Z " fill="#000100" transform="translate(720,832)"/>
<path d="M0 0 C0.33 0.66 0.66 1.32 1 2 C0.34 1.67 -0.32 1.34 -1 1 C-0.67 0.67 -0.34 0.34 0 0 Z " fill="#000100" transform="translate(654,827)"/>
<path d="M0 0 C0.66 0.66 1.32 1.32 2 2 C1.34 2 0.68 2 0 2 C0 1.34 0 0.68 0 0 Z " fill="#000100" transform="translate(435,825)"/>
<path d="" fill="#000100" transform="translate(0,0)"/>
<path d="" fill="#000100" transform="translate(0,0)"/>
<path d="" fill="#000100" transform="translate(0,0)"/>
<path d="" fill="#000100" transform="translate(0,0)"/>
<path d="" fill="#000100" transform="translate(0,0)"/>
<path d="M0 0 C3 1 3 1 3 1 Z " fill="#000100" transform="translate(930,805)"/>
<path d="M0 0 C0.66 0 1.32 0 2 0 C1.67 0.66 1.34 1.32 1 2 C0.67 1.34 0.34 0.68 0 0 Z " fill="#000100" transform="translate(421,803)"/>
<path d="" fill="#000100" transform="translate(0,0)"/>
<path d="M0 0 C3 1 3 1 3 1 Z " fill="#000100" transform="translate(848,797)"/>
<path d="M0 0 C0.66 0 1.32 0 2 0 C1.67 0.66 1.34 1.32 1 2 C0.67 1.34 0.34 0.68 0 0 Z " fill="#000100" transform="translate(905,792)"/>
<path d="M0 0 C3 1 3 1 3 1 Z " fill="#000100" transform="translate(263,792)"/>
<path d="" fill="#000100" transform="translate(0,0)"/>
<path d="M0 0 C0.66 0 1.32 0 2 0 C1.67 0.66 1.34 1.32 1 2 C0.67 1.34 0.34 0.68 0 0 Z " fill="#000100" transform="translate(693,783)"/>
<path d="M0 0 C0.33 0.66 0.66 1.32 1 2 C0.34 1.67 -0.32 1.34 -1 1 C-0.67 0.67 -0.34 0.34 0 0 Z " fill="#000100" transform="translate(1127,780)"/>
<path d="M0 0 C0.66 0 1.32 0 2 0 C1.67 0.66 1.34 1.32 1 2 C0.67 1.34 0.34 0.68 0 0 Z " fill="#000100" transform="translate(691,779)"/>
<path d="M0 0 C0.66 0 1.32 0 2 0 C1.67 0.66 1.34 1.32 1 2 C0.67 1.34 0.34 0.68 0 0 Z " fill="#000100" transform="translate(401,770)"/>
<path d="M0 0 C0.66 0 1.32 0 2 0 C1.67 0.66 1.34 1.32 1 2 C0.67 1.34 0.34 0.68 0 0 Z " fill="#000100" transform="translate(682,761)"/>
<path d="" fill="#000100" transform="translate(0,0)"/>
<path d="M0 0 C0.66 0 1.32 0 2 0 C1.67 0.66 1.34 1.32 1 2 C0.67 1.34 0.34 0.68 0 0 Z " fill="#000100" transform="translate(1126,741)"/>
<path d="" fill="#000100" transform="translate(0,0)"/>
<path d="M0 0 C0.66 0.66 1.32 1.32 2 2 C1.34 2 0.68 2 0 2 C0 1.34 0 0.68 0 0 Z " fill="#000100" transform="translate(531,392)"/>
<path d="M0 0 C0.33 0.66 0.66 1.32 1 2 C0.34 1.67 -0.32 1.34 -1 1 C-0.67 0.67 -0.34 0.34 0 0 Z " fill="#000100" transform="translate(565,392)"/>
<path d="" fill="#000100" transform="translate(0,0)"/>
<path d="M0 0 C3 1 3 1 3 1 Z " fill="#000100" transform="translate(448,375)"/>
<path d="M0 0 C3 1 3 1 3 1 Z " fill="#000100" transform="translate(673,366)"/>
<path d="M0 0 C0.33 0.66 0.66 1.32 1 2 C0.34 1.67 -0.32 1.34 -1 1 C-0.67 0.67 -0.34 0.34 0 0 Z " fill="#000100" transform="translate(739,345)"/>
<path d="M0 0 C3 1 3 1 3 1 Z " fill="#000100" transform="translate(769,337)"/>
<path d="M0 0 C0.33 0.66 0.66 1.32 1 2 C0.34 1.67 -0.32 1.34 -1 1 C-0.67 0.67 -0.34 0.34 0 0 Z " fill="#000100" transform="translate(788,334)"/>
<path d="M0 0 C0.33 0.66 0.66 1.32 1 2 C0.34 1.67 -0.32 1.34 -1 1 C-0.67 0.67 -0.34 0.34 0 0 Z " fill="#000100" transform="translate(799,332)"/>
<path d="M0 0 C2 1 2 1 2 1 Z " fill="#000100" transform="translate(752,1057)"/>
<path d="M0 0 C2 1 2 1 2 1 Z " fill="#000100" transform="translate(724,1057)"/>
<path d="M0 0 C2 1 2 1 2 1 Z " fill="#000100" transform="translate(474,1057)"/>
<path d="M0 0 C2 1 2 1 2 1 Z " fill="#000100" transform="translate(446,1057)"/>
<path d="M0 0 C2 1 2 1 2 1 Z " fill="#000100" transform="translate(757,1055)"/>
<path d="M0 0 C2 1 2 1 2 1 Z " fill="#000100" transform="translate(718,1055)"/>
<path d="M0 0 C2 1 2 1 2 1 Z " fill="#000100" transform="translate(565,1055)"/>
<path d="M0 0 C2 1 2 1 2 1 Z " fill="#000100" transform="translate(526,1055)"/>
<path d="M0 0 C2 1 2 1 2 1 Z " fill="#000100" transform="translate(480,1055)"/>
<path d="M0 0 C2 1 2 1 2 1 Z " fill="#000100" transform="translate(441,1055)"/>
<path d="M0 0 C2 1 2 1 2 1 Z " fill="#000100" transform="translate(761,1053)"/>
<path d="M0 0 C2 1 2 1 2 1 Z " fill="#000100" transform="translate(715,1053)"/>
<path d="M0 0 C2 1 2 1 2 1 Z " fill="#000100" transform="translate(437,1053)"/>
<path d="" fill="#000100" transform="translate(0,0)"/>
<path d="" fill="#000100" transform="translate(0,0)"/>
<path d="" fill="#000100" transform="translate(0,0)"/>
<path d="" fill="#000100" transform="translate(0,0)"/>
<path d="" fill="#000100" transform="translate(0,0)"/>
<path d="" fill="#000100" transform="translate(0,0)"/>
<path d="" fill="#000100" transform="translate(0,0)"/>
<path d="" fill="#000100" transform="translate(0,0)"/>
<path d="" fill="#000100" transform="translate(0,0)"/>
<path d="" fill="#000100" transform="translate(0,0)"/>
<path d="" fill="#2A2B22" transform="translate(0,0)"/>
<path d="" fill="#000100" transform="translate(0,0)"/>
<path d="" fill="#000100" transform="translate(0,0)"/>
<path d="" fill="#000100" transform="translate(0,0)"/>
<path d="" fill="#000100" transform="translate(0,0)"/>
<path d="" fill="#000100" transform="translate(0,0)"/>
<path d="" fill="#000100" transform="translate(0,0)"/>
<path d="" fill="#000100" transform="translate(0,0)"/>
<path d="" fill="#000100" transform="translate(0,0)"/>
<path d="" fill="#000100" transform="translate(0,0)"/>
<path d="" fill="#378474" transform="translate(0,0)"/>
<path d="" fill="#000100" transform="translate(0,0)"/>
<path d="M0 0 C2 1 2 1 2 1 Z " fill="#000100" transform="translate(220,928)"/>
<path d="" fill="#000100" transform="translate(0,0)"/>
<path d="M0 0 C2 1 2 1 2 1 Z " fill="#000100" transform="translate(202,921)"/>
<path d="M0 0 C2 1 2 1 2 1 Z " fill="#000100" transform="translate(315,919)"/>
<path d="" fill="#000100" transform="translate(0,0)"/>
<path d="" fill="#000100" transform="translate(0,0)"/>
<path d="" fill="#000100" transform="translate(0,0)"/>
<path d="" fill="#000100" transform="translate(0,0)"/>
<path d="" fill="#000100" transform="translate(0,0)"/>
<path d="" fill="#000100" transform="translate(0,0)"/>
<path d="" fill="#000100" transform="translate(0,0)"/>
<path d="M0 0 C2 1 2 1 2 1 Z " fill="#000100" transform="translate(841,895)"/>
<path d="M0 0 C2 1 2 1 2 1 Z " fill="#000100" transform="translate(837,892)"/>
<path d="" fill="#000100" transform="translate(0,0)"/>
<path d="" fill="#000100" transform="translate(0,0)"/>
<path d="M0 0 C2 1 2 1 2 1 Z " fill="#000100" transform="translate(889,872)"/>
<path d="M0 0 C2 1 2 1 2 1 Z " fill="#000100" transform="translate(282,872)"/>
<path d="M0 0 C2 1 2 1 2 1 Z " fill="#000100" transform="translate(255,864)"/>
<path d="" fill="#000100" transform="translate(0,0)"/>
<path d="" fill="#000100" transform="translate(0,0)"/>
<path d="" fill="#000100" transform="translate(0,0)"/>
<path d="M0 0 C2 1 2 1 2 1 Z " fill="#000100" transform="translate(218,852)"/>
<path d="M0 0 C2 1 2 1 2 1 Z " fill="#000100" transform="translate(214,850)"/>
<path d="" fill="#19B4A3" transform="translate(0,0)"/>
<path d="" fill="#000100" transform="translate(0,0)"/>
<path d="" fill="#000100" transform="translate(0,0)"/>
<path d="" fill="#000100" transform="translate(0,0)"/>
<path d="" fill="#000100" transform="translate(0,0)"/>
<path d="M0 0 C2 1 2 1 2 1 Z " fill="#000100" transform="translate(1003,808)"/>
<path d="" fill="#000100" transform="translate(0,0)"/>
<path d="M0 0 C2 1 2 1 2 1 Z " fill="#000100" transform="translate(933,806)"/>
<path d="M0 0 C2 1 2 1 2 1 Z " fill="#000100" transform="translate(862,803)"/>
<path d="" fill="#000100" transform="translate(0,0)"/>
<path d="" fill="#000100" transform="translate(0,0)"/>
<path d="" fill="#000100" transform="translate(0,0)"/>
<path d="M0 0 C2 1 2 1 2 1 Z " fill="#000100" transform="translate(700,797)"/>
<path d="M0 0 C2 1 2 1 2 1 Z " fill="#000100" transform="translate(245,797)"/>
<path d="" fill="#000100" transform="translate(0,0)"/>
<path d="" fill="#000100" transform="translate(0,0)"/>
<path d="" fill="#000100" transform="translate(0,0)"/>
<path d="" fill="#000100" transform="translate(0,0)"/>
<path d="M0 0 C2 1 2 1 2 1 Z " fill="#000100" transform="translate(269,792)"/>
<path d="M0 0 C2 1 2 1 2 1 Z " fill="#000100" transform="translate(1081,788)"/>
<path d="" fill="#000100" transform="translate(0,0)"/>
<path d="" fill="#2A2B22" transform="translate(0,0)"/>
<path d="M0 0 C2 1 2 1 2 1 Z " fill="#000100" transform="translate(1102,783)"/>
<path d="M0 0 C2 1 2 1 2 1 Z " fill="#000100" transform="translate(566,391)"/>
<path d="M0 0 C2 1 2 1 2 1 Z " fill="#000100" transform="translate(595,389)"/>
<path d="M0 0 C2 1 2 1 2 1 Z " fill="#000100" transform="translate(500,389)"/>
<path d="M0 0 C2 1 2 1 2 1 Z " fill="#000100" transform="translate(633,380)"/>
<path d="M0 0 C2 1 2 1 2 1 Z " fill="#000100" transform="translate(462,380)"/>
<path d="M0 0 C2 1 2 1 2 1 Z " fill="#000100" transform="translate(660,371)"/>
<path d="" fill="#000100" transform="translate(0,0)"/>
<path d="M0 0 C2 1 2 1 2 1 Z " fill="#000100" transform="translate(693,360)"/>
<path d="M0 0 C2 1 2 1 2 1 Z " fill="#000100" transform="translate(695,359)"/>
<path d="M0 0 C2 1 2 1 2 1 Z " fill="#000100" transform="translate(701,357)"/>
<path d="M0 0 C2 1 2 1 2 1 Z " fill="#000100" transform="translate(709,355)"/>
<path d="M0 0 C2 1 2 1 2 1 Z " fill="#000100" transform="translate(720,351)"/>
<path d="M0 0 C2 1 2 1 2 1 Z " fill="#000100" transform="translate(811,331)"/>
<path d="" fill="#000100" transform="translate(0,0)"/>
<path d="" fill="#000100" transform="translate(0,0)"/>
<path d="" fill="#000100" transform="translate(0,0)"/>
<path d="" fill="#000100" transform="translate(0,0)"/>
<path d="" fill="#000100" transform="translate(0,0)"/>
<path d="" fill="#000100" transform="translate(0,0)"/>
<path d="" fill="#000100" transform="translate(0,0)"/>
<path d="" fill="#000100" transform="translate(0,0)"/>
<path d="" fill="#000100" transform="translate(0,0)"/>
<path d="" fill="#000100" transform="translate(0,0)"/>
<path d="" fill="#000100" transform="translate(0,0)"/>
<path d="" fill="#000100" transform="translate(0,0)"/>
<path d="" fill="#000100" transform="translate(0,0)"/>
<path d="" fill="#000100" transform="translate(0,0)"/>
<path d="" fill="#000100" transform="translate(0,0)"/>
<path d="" fill="#000100" transform="translate(0,0)"/>
<path d="" fill="#000100" transform="translate(0,0)"/>
<path d="" fill="#19B4A3" transform="translate(0,0)"/>
<path d="" fill="#000100" transform="translate(0,0)"/>
<path d="" fill="#000100" transform="translate(0,0)"/>
<path d="" fill="#000100" transform="translate(0,0)"/>
<path d="" fill="#000100" transform="translate(0,0)"/>
<path d="" fill="#000100" transform="translate(0,0)"/>
<path d="" fill="#000100" transform="translate(0,0)"/>
<path d="" fill="#000100" transform="translate(0,0)"/>
<path d="" fill="#000100" transform="translate(0,0)"/>
<path d="" fill="#000100" transform="translate(0,0)"/>
<path d="" fill="#000100" transform="translate(0,0)"/>
<path d="" fill="#000100" transform="translate(0,0)"/>
<path d="" fill="#000100" transform="translate(0,0)"/>
<path d="" fill="#000100" transform="translate(0,0)"/>
<path d="" fill="#000100" transform="translate(0,0)"/>
<path d="" fill="#000100" transform="translate(0,0)"/>
<path d="" fill="#000100" transform="translate(0,0)"/>
<path d="" fill="#000100" transform="translate(0,0)"/>
<path d="" fill="#000100" transform="translate(0,0)"/>
<path d="" fill="#000100" transform="translate(0,0)"/>
<path d="" fill="#555545" transform="translate(0,0)"/>
<path d="" fill="#000100" transform="translate(0,0)"/>
<path d="" fill="#000100" transform="translate(0,0)"/>
<path d="" fill="#000100" transform="translate(0,0)"/>
<path d="" fill="#000100" transform="translate(0,0)"/>
<path d="" fill="#000100" transform="translate(0,0)"/>
<path d="" fill="#000100" transform="translate(0,0)"/>
<path d="" fill="#000100" transform="translate(0,0)"/>
<path d="" fill="#000100" transform="translate(0,0)"/>
<path d="" fill="#000100" transform="translate(0,0)"/>
<path d="" fill="#000100" transform="translate(0,0)"/>
<path d="" fill="#000100" transform="translate(0,0)"/>
<path d="" fill="#000100" transform="translate(0,0)"/>
<path d="" fill="#000100" transform="translate(0,0)"/>
<path d="" fill="#000100" transform="translate(0,0)"/>
<path d="" fill="#000100" transform="translate(0,0)"/>
<path d="" fill="#000100" transform="translate(0,0)"/>
<path d="" fill="#000100" transform="translate(0,0)"/>
<path d="" fill="#000100" transform="translate(0,0)"/>
<path d="" fill="#000100" transform="translate(0,0)"/>
<path d="" fill="#000100" transform="translate(0,0)"/>
<path d="" fill="#000100" transform="translate(0,0)"/>
<path d="" fill="#19B4A3" transform="translate(0,0)"/>
<path d="" fill="#000100" transform="translate(0,0)"/>
<path d="" fill="#000100" transform="translate(0,0)"/>
<path d="" fill="#000100" transform="translate(0,0)"/>
<path d="" fill="#000100" transform="translate(0,0)"/>
<path d="" fill="#000100" transform="translate(0,0)"/>
<path d="" fill="#000100" transform="translate(0,0)"/>
<path d="" fill="#000100" transform="translate(0,0)"/>
<path d="" fill="#000100" transform="translate(0,0)"/>
<path d="" fill="#000100" transform="translate(0,0)"/>
<path d="" fill="#000100" transform="translate(0,0)"/>
<path d="" fill="#000100" transform="translate(0,0)"/>
<path d="" fill="#000100" transform="translate(0,0)"/>
<path d="" fill="#000100" transform="translate(0,0)"/>
<path d="" fill="#000100" transform="translate(0,0)"/>
<path d="" fill="#000100" transform="translate(0,0)"/>
<path d="" fill="#000100" transform="translate(0,0)"/>
<path d="" fill="#000100" transform="translate(0,0)"/>
<path d="" fill="#000100" transform="translate(0,0)"/>
<path d="" fill="#000100" transform="translate(0,0)"/>
<path d="" fill="#000100" transform="translate(0,0)"/>
<path d="" fill="#000100" transform="translate(0,0)"/>
<path d="" fill="#000100" transform="translate(0,0)"/>
<path d="" fill="#000100" transform="translate(0,0)"/>
<path d="" fill="#000100" transform="translate(0,0)"/>
<path d="" fill="#000100" transform="translate(0,0)"/>
<path d="" fill="#000100" transform="translate(0,0)"/>
<path d="" fill="#000100" transform="translate(0,0)"/>
<path d="" fill="#000100" transform="translate(0,0)"/>
<path d="" fill="#000100" transform="translate(0,0)"/>
<path d="" fill="#000100" transform="translate(0,0)"/>
<path d="" fill="#000100" transform="translate(0,0)"/>
<path d="" fill="#000100" transform="translate(0,0)"/>
<path d="" fill="#000100" transform="translate(0,0)"/>
<path d="" fill="#19B4A3" transform="translate(0,0)"/>
<path d="" fill="#000100" transform="translate(0,0)"/>
<path d="" fill="#19B4A3" transform="translate(0,0)"/>
<path d="" fill="#555545" transform="translate(0,0)"/>
<path d="" fill="#19B4A3" transform="translate(0,0)"/>
<path d="" fill="#19B4A3" transform="translate(0,0)"/>
<path d="" fill="#000100" transform="translate(0,0)"/>
<path d="" fill="#000100" transform="translate(0,0)"/>
<path d="" fill="#000100" transform="translate(0,0)"/>
<path d="" fill="#000100" transform="translate(0,0)"/>
<path d="" fill="#000100" transform="translate(0,0)"/>
<path d="" fill="#000100" transform="translate(0,0)"/>
<path d="" fill="#000100" transform="translate(0,0)"/>
<path d="" fill="#000100" transform="translate(0,0)"/>
<path d="" fill="#000100" transform="translate(0,0)"/>
<path d="" fill="#000100" transform="translate(0,0)"/>
<path d="" fill="#000100" transform="translate(0,0)"/>
<path d="" fill="#000100" transform="translate(0,0)"/>
<path d="" fill="#000100" transform="translate(0,0)"/>
<path d="" fill="#000100" transform="translate(0,0)"/>
<path d="" fill="#000100" transform="translate(0,0)"/>
<path d="" fill="#000100" transform="translate(0,0)"/>
<path d="" fill="#000100" transform="translate(0,0)"/>
<path d="" fill="#000100" transform="translate(0,0)"/>
<path d="" fill="#000100" transform="translate(0,0)"/>
<path d="" fill="#000100" transform="translate(0,0)"/>
<path d="" fill="#000100" transform="translate(0,0)"/>
<path d="" fill="#000100" transform="translate(0,0)"/>
<path d="" fill="#000100" transform="translate(0,0)"/>
<path d="" fill="#000100" transform="translate(0,0)"/>
<path d="" fill="#000100" transform="translate(0,0)"/>
<path d="" fill="#000100" transform="translate(0,0)"/>
<path d="" fill="#000100" transform="translate(0,0)"/>
<path d="" fill="#000100" transform="translate(0,0)"/>
<path d="" fill="#000100" transform="translate(0,0)"/>
<path d="" fill="#000100" transform="translate(0,0)"/>
<path d="" fill="#000100" transform="translate(0,0)"/>
<path d="" fill="#19B4A3" transform="translate(0,0)"/>
<path d="" fill="#000100" transform="translate(0,0)"/>
<path d="" fill="#000100" transform="translate(0,0)"/>
<path d="" fill="#000100" transform="translate(0,0)"/>
<path d="" fill="#000100" transform="translate(0,0)"/>
<path d="" fill="#000100" transform="translate(0,0)"/>
<path d="" fill="#000100" transform="translate(0,0)"/>
<path d="" fill="#000100" transform="translate(0,0)"/>
<path d="" fill="#000100" transform="translate(0,0)"/>
<path d="" fill="#000100" transform="translate(0,0)"/>
<path d="" fill="#000100" transform="translate(0,0)"/>
<path d="" fill="#000100" transform="translate(0,0)"/>
<path d="" fill="#000100" transform="translate(0,0)"/>
<path d="" fill="#000100" transform="translate(0,0)"/>
<path d="" fill="#000100" transform="translate(0,0)"/>
<path d="" fill="#000100" transform="translate(0,0)"/>
<path d="" fill="#000100" transform="translate(0,0)"/>
<path d="" fill="#000100" transform="translate(0,0)"/>
<path d="" fill="#000100" transform="translate(0,0)"/>
<path d="" fill="#000100" transform="translate(0,0)"/>
<path d="" fill="#000100" transform="translate(0,0)"/>
<path d="" fill="#000100" transform="translate(0,0)"/>
<path d="" fill="#000100" transform="translate(0,0)"/>
<path d="" fill="#000100" transform="translate(0,0)"/>
<path d="" fill="#000100" transform="translate(0,0)"/>
<path d="" fill="#000100" transform="translate(0,0)"/>
<path d="" fill="#000100" transform="translate(0,0)"/>
<path d="" fill="#000100" transform="translate(0,0)"/>
<path d="" fill="#19B4A3" transform="translate(0,0)"/>
<path d="" fill="#000100" transform="translate(0,0)"/>
<path d="" fill="#000100" transform="translate(0,0)"/>
<path d="" fill="#000100" transform="translate(0,0)"/>
<path d="" fill="#000100" transform="translate(0,0)"/>
<path d="" fill="#000100" transform="translate(0,0)"/>
<path d="" fill="#000100" transform="translate(0,0)"/>
<path d="" fill="#000100" transform="translate(0,0)"/>
<path d="" fill="#000100" transform="translate(0,0)"/>
<path d="" fill="#000100" transform="translate(0,0)"/>
<path d="" fill="#000100" transform="translate(0,0)"/>
<path d="" fill="#000100" transform="translate(0,0)"/>
<path d="" fill="#000100" transform="translate(0,0)"/>
<path d="" fill="#000100" transform="translate(0,0)"/>
<path d="" fill="#000100" transform="translate(0,0)"/>
<path d="" fill="#000100" transform="translate(0,0)"/>
<path d="" fill="#000100" transform="translate(0,0)"/>
<path d="" fill="#000100" transform="translate(0,0)"/>
<path d="" fill="#000100" transform="translate(0,0)"/>
<path d="" fill="#000100" transform="translate(0,0)"/>
<path d="" fill="#000100" transform="translate(0,0)"/>
<path d="" fill="#000100" transform="translate(0,0)"/>
<path d="" fill="#000100" transform="translate(0,0)"/>
<path d="" fill="#000100" transform="translate(0,0)"/>
<path d="" fill="#000100" transform="translate(0,0)"/>
<path d="" fill="#000100" transform="translate(0,0)"/>
<path d="" fill="#000100" transform="translate(0,0)"/>
<path d="" fill="#000100" transform="translate(0,0)"/>
<path d="" fill="#000100" transform="translate(0,0)"/>
<path d="" fill="#000100" transform="translate(0,0)"/>
<path d="" fill="#000100" transform="translate(0,0)"/>
<path d="" fill="#000100" transform="translate(0,0)"/>
<path d="" fill="#000100" transform="translate(0,0)"/>
<path d="" fill="#000100" transform="translate(0,0)"/>
<path d="" fill="#000100" transform="translate(0,0)"/>
<path d="" fill="#000100" transform="translate(0,0)"/>
<path d="" fill="#000100" transform="translate(0,0)"/>
<path d="" fill="#000100" transform="translate(0,0)"/>
<path d="" fill="#000100" transform="translate(0,0)"/>
<path d="" fill="#000100" transform="translate(0,0)"/>
<path d="" fill="#000100" transform="translate(0,0)"/>
<path d="" fill="#000100" transform="translate(0,0)"/>
<path d="" fill="#000100" transform="translate(0,0)"/>
<path d="" fill="#000100" transform="translate(0,0)"/>
<path d="" fill="#000100" transform="translate(0,0)"/>
<path d="" fill="#000100" transform="translate(0,0)"/>
<path d="" fill="#000100" transform="translate(0,0)"/>
<path d="" fill="#000100" transform="translate(0,0)"/>
<path d="" fill="#000100" transform="translate(0,0)"/>
<path d="" fill="#000100" transform="translate(0,0)"/>
<path d="" fill="#000100" transform="translate(0,0)"/>
<path d="" fill="#000100" transform="translate(0,0)"/>
<path d="" fill="#000100" transform="translate(0,0)"/>
<path d="" fill="#000100" transform="translate(0,0)"/>
<path d="" fill="#000100" transform="translate(0,0)"/>
<path d="" fill="#000100" transform="translate(0,0)"/>
<path d="" fill="#000100" transform="translate(0,0)"/>
<path d="" fill="#000100" transform="translate(0,0)"/>
<path d="" fill="#000100" transform="translate(0,0)"/>
<path d="" fill="#000100" transform="translate(0,0)"/>
<path d="" fill="#000100" transform="translate(0,0)"/>
<path d="" fill="#000100" transform="translate(0,0)"/>
<path d="" fill="#000100" transform="translate(0,0)"/>
<path d="" fill="#000100" transform="translate(0,0)"/>
<path d="" fill="#000100" transform="translate(0,0)"/>
<path d="" fill="#000100" transform="translate(0,0)"/>
<path d="" fill="#000100" transform="translate(0,0)"/>
<path d="" fill="#000100" transform="translate(0,0)"/>
<path d="" fill="#000100" transform="translate(0,0)"/>
<path d="" fill="#000100" transform="translate(0,0)"/>
<path d="" fill="#000100" transform="translate(0,0)"/>
<path d="" fill="#000100" transform="translate(0,0)"/>
<path d="" fill="#000100" transform="translate(0,0)"/>
<path d="" fill="#000100" transform="translate(0,0)"/>
<path d="" fill="#19B4A3" transform="translate(0,0)"/>
<path d="" fill="#000100" transform="translate(0,0)"/>
<path d="" fill="#19B4A3" transform="translate(0,0)"/>
<path d="" fill="#000100" transform="translate(0,0)"/>
<path d="" fill="#000100" transform="translate(0,0)"/>
<path d="" fill="#000100" transform="translate(0,0)"/>
<path d="" fill="#000100" transform="translate(0,0)"/>
<path d="" fill="#000100" transform="translate(0,0)"/>
<path d="" fill="#000100" transform="translate(0,0)"/>
<path d="" fill="#000100" transform="translate(0,0)"/>
<path d="" fill="#000100" transform="translate(0,0)"/>
<path d="" fill="#000100" transform="translate(0,0)"/>
<path d="" fill="#000100" transform="translate(0,0)"/>
<path d="" fill="#000100" transform="translate(0,0)"/>
<path d="" fill="#000100" transform="translate(0,0)"/>
<path d="" fill="#000100" transform="translate(0,0)"/>
<path d="" fill="#000100" transform="translate(0,0)"/>
<path d="" fill="#000100" transform="translate(0,0)"/>
<path d="" fill="#000100" transform="translate(0,0)"/>
<path d="" fill="#000100" transform="translate(0,0)"/>
<path d="" fill="#000100" transform="translate(0,0)"/>
<path d="" fill="#000100" transform="translate(0,0)"/>
<path d="" fill="#000100" transform="translate(0,0)"/>
<path d="" fill="#000100" transform="translate(0,0)"/>
<path d="" fill="#000100" transform="translate(0,0)"/>
<path d="" fill="#000100" transform="translate(0,0)"/>
<path d="" fill="#000100" transform="translate(0,0)"/>
<path d="" fill="#000100" transform="translate(0,0)"/>
<path d="" fill="#000100" transform="translate(0,0)"/>
<path d="" fill="#000100" transform="translate(0,0)"/>
<path d="" fill="#000100" transform="translate(0,0)"/>
<path d="" fill="#000100" transform="translate(0,0)"/>
<path d="" fill="#000100" transform="translate(0,0)"/>
<path d="" fill="#000100" transform="translate(0,0)"/>
<path d="" fill="#000100" transform="translate(0,0)"/>
<path d="" fill="#000100" transform="translate(0,0)"/>
<path d="" fill="#000100" transform="translate(0,0)"/>
<path d="" fill="#000100" transform="translate(0,0)"/>
<path d="" fill="#000100" transform="translate(0,0)"/>
<path d="" fill="#000100" transform="translate(0,0)"/>
<path d="" fill="#000100" transform="translate(0,0)"/>
<path d="" fill="#000100" transform="translate(0,0)"/>
<path d="" fill="#000100" transform="translate(0,0)"/>
<path d="" fill="#000100" transform="translate(0,0)"/>
<path d="" fill="#000100" transform="translate(0,0)"/>
<path d="" fill="#000100" transform="translate(0,0)"/>
<path d="" fill="#000100" transform="translate(0,0)"/>
<path d="" fill="#000100" transform="translate(0,0)"/>
<path d="" fill="#000100" transform="translate(0,0)"/>
<path d="" fill="#000100" transform="translate(0,0)"/>
<path d="" fill="#000100" transform="translate(0,0)"/>
<path d="" fill="#19B4A3" transform="translate(0,0)"/>
<path d="" fill="#000100" transform="translate(0,0)"/>
<path d="" fill="#000100" transform="translate(0,0)"/>
<path d="" fill="#000100" transform="translate(0,0)"/>
<path d="" fill="#000100" transform="translate(0,0)"/>
<path d="" fill="#000100" transform="translate(0,0)"/>
<path d="" fill="#000100" transform="translate(0,0)"/>
<path d="" fill="#000100" transform="translate(0,0)"/>
<path d="" fill="#000100" transform="translate(0,0)"/>
<path d="" fill="#000100" transform="translate(0,0)"/>
<path d="" fill="#000100" transform="translate(0,0)"/>
<path d="" fill="#000100" transform="translate(0,0)"/>
<path d="" fill="#000100" transform="translate(0,0)"/>
<path d="" fill="#000100" transform="translate(0,0)"/>
<path d="" fill="#000100" transform="translate(0,0)"/>
<path d="" fill="#000100" transform="translate(0,0)"/>
<path d="" fill="#000100" transform="translate(0,0)"/>
<path d="" fill="#000100" transform="translate(0,0)"/>
<path d="" fill="#000100" transform="translate(0,0)"/>
<path d="" fill="#000100" transform="translate(0,0)"/>
<path d="" fill="#000100" transform="translate(0,0)"/>
<path d="" fill="#000100" transform="translate(0,0)"/>
<path d="" fill="#000100" transform="translate(0,0)"/>
<path d="" fill="#000100" transform="translate(0,0)"/>
<path d="" fill="#000100" transform="translate(0,0)"/>
<path d="" fill="#000100" transform="translate(0,0)"/>
<path d="" fill="#000100" transform="translate(0,0)"/>
<path d="" fill="#000100" transform="translate(0,0)"/>
<path d="" fill="#000100" transform="translate(0,0)"/>
<path d="" fill="#000100" transform="translate(0,0)"/>
<path d="" fill="#000100" transform="translate(0,0)"/>
<path d="" fill="#000100" transform="translate(0,0)"/>
<path d="" fill="#000100" transform="translate(0,0)"/>
<path d="" fill="#000100" transform="translate(0,0)"/>
<path d="" fill="#000100" transform="translate(0,0)"/>
<path d="" fill="#000100" transform="translate(0,0)"/>
<path d="" fill="#000100" transform="translate(0,0)"/>
<path d="" fill="#000100" transform="translate(0,0)"/>
<path d="" fill="#000100" transform="translate(0,0)"/>
<path d="" fill="#000100" transform="translate(0,0)"/>
<path d="" fill="#000100" transform="translate(0,0)"/>
<path d="" fill="#000100" transform="translate(0,0)"/>
<path d="" fill="#000100" transform="translate(0,0)"/>
<path d="" fill="#000100" transform="translate(0,0)"/>
</svg>
