<svg width="16" height="16" viewBox="0 0 16 16" fill="none" xmlns="http://www.w3.org/2000/svg">
<path d="M9.48571 9.82857V2.05714C9.48571 0.914286 8.57143 0 7.42857 0C6.28572 0 5.37143 0.914286 5.37143 2.05714V9.82857C4.57143 10.4 4 11.4286 4 12.5714C4 14.5143 5.48572 16 7.42857 16C9.37143 16 10.8571 14.5143 10.8571 12.5714C10.8571 11.4286 10.2857 10.4 9.48571 9.82857ZM6.51429 2.05714C6.51429 1.48571 6.97143 1.14286 7.42857 1.14286C7.88572 1.14286 8.34286 1.48571 8.34286 2.05714V8H6.62857V2.05714H6.51429Z" fill="url(#paint0_linear_11765_86586)"/>
<defs>
<linearGradient id="paint0_linear_11765_86586" x1="4" y1="-5.04" x2="14.3583" y2="-3.56089" gradientUnits="userSpaceOnUse">
<stop stop-color="#06AA8C"/>
<stop offset="1" stop-color="#008970"/>
</linearGradient>
</defs>
</svg>
